<svg id="svg" xmlns="http://www.w3.org/2000/svg" xmlns:xlink="http://www.w3.org/1999/xlink" width="400" height="346" viewBox="0, 0, 400,346"><g id="svgg"><path id="path0" d="M214.111 41.045 C 213.759 41.547,213.716 41.800,213.980 41.800 C 214.080 41.800,214.255 41.530,214.370 41.200 C 214.619 40.487,214.537 40.437,214.111 41.045 M167.689 75.450 C 165.676 81.996,158.548 88.350,151.007 90.317 C 148.755 90.905,148.470 91.139,147.411 93.278 C 146.230 95.665,145.817 97.509,145.831 100.343 C 145.849 103.907,145.144 106.429,143.675 108.054 C 142.986 108.816,142.955 108.910,143.060 109.928 C 143.181 111.092,143.187 111.089,142.048 110.273 C 141.613 109.961,141.589 109.971,141.390 110.543 C 141.157 111.211,140.549 111.715,139.078 112.460 C 137.797 113.110,136.186 114.382,135.489 115.297 C 134.809 116.188,134.935 116.343,135.883 115.783 C 137.623 114.757,136.558 116.973,134.760 118.120 C 134.353 118.380,133.663 119.118,133.226 119.761 C 132.196 121.279,131.212 122.128,130.153 122.413 C 129.017 122.718,128.325 123.085,126.958 124.105 C 126.330 124.574,124.998 125.297,123.997 125.712 C 122.997 126.127,122.090 126.631,121.982 126.833 C 121.666 127.424,120.295 127.288,117.460 126.384 C 114.230 125.354,112.595 125.199,110.800 125.752 C 106.352 127.122,105.969 126.820,104.287 120.618 C 102.693 114.743,101.006 111.108,100.392 112.227 C 99.082 114.612,100.264 123.886,102.067 125.374 C 102.482 125.716,102.500 126.374,102.100 126.528 C 101.676 126.690,101.723 127.035,102.342 128.296 L 102.883 129.400 104.392 129.400 C 105.221 129.400,106.665 129.259,107.600 129.088 C 113.194 128.062,120.258 129.413,120.554 131.564 C 120.811 133.435,123.666 139.731,124.788 140.900 C 125.210 141.340,125.676 142.060,125.825 142.500 C 125.997 143.012,126.560 143.753,127.388 144.558 L 128.683 145.815 128.300 146.527 C 128.089 146.918,126.695 148.351,125.203 149.712 C 122.244 152.408,121.020 153.736,119.949 155.410 C 119.022 156.857,118.378 157.188,113.539 158.702 C 111.317 159.397,107.295 160.722,104.600 161.646 C 96.977 164.259,91.863 165.096,90.496 163.953 C 89.705 163.292,88.627 162.763,86.766 162.126 C 84.643 161.398,84.480 161.418,84.318 162.432 C 84.158 163.431,84.218 163.499,85.507 163.767 C 87.119 164.103,88.281 164.696,89.508 165.807 L 90.653 166.844 91.777 166.723 C 92.394 166.656,93.284 166.546,93.754 166.479 C 94.329 166.397,95.205 166.505,96.438 166.809 C 97.934 167.179,98.378 167.220,98.869 167.035 C 99.645 166.742,99.872 166.934,100.391 168.321 C 102.500 173.959,101.153 177.547,95.791 180.565 C 93.734 181.723,93.747 181.725,97.400 180.889 C 100.672 180.139,101.738 180.233,103.531 181.429 C 105.632 182.830,107.385 184.402,107.959 185.398 C 109.395 187.891,111.687 189.846,113.701 190.294 C 116.258 190.863,118.944 192.397,119.459 193.582 C 119.597 193.900,119.726 196.177,119.792 199.468 L 119.900 204.835 120.450 205.308 C 120.752 205.568,121.000 205.832,121.000 205.895 C 121.000 206.605,113.703 207.297,109.200 207.014 C 106.193 206.825,106.110 206.850,105.795 208.019 C 105.676 208.461,105.367 208.943,105.072 209.146 C 103.976 209.900,103.193 210.730,102.900 211.450 C 102.448 212.559,102.813 212.428,104.969 210.705 C 107.240 208.890,107.558 208.810,110.498 209.319 C 112.337 209.637,113.704 209.700,118.800 209.700 C 126.179 209.700,124.992 209.095,129.877 215.345 C 130.393 216.006,130.151 216.165,128.396 216.323 C 124.559 216.669,125.435 217.424,130.461 218.105 C 132.797 218.422,134.211 218.794,134.737 219.231 C 134.943 219.401,135.203 219.369,135.800 219.100 C 137.073 218.526,137.652 219.200,136.669 220.111 C 136.201 220.545,136.165 220.664,136.369 221.111 C 136.708 221.855,136.650 222.815,136.224 223.514 C 135.481 224.733,135.499 224.941,136.393 225.397 C 137.152 225.784,137.310 226.600,136.625 226.600 C 136.362 226.600,136.000 227.570,136.000 228.275 C 136.000 228.636,135.779 229.476,135.508 230.141 C 134.811 231.858,134.616 233.299,134.402 238.331 C 134.187 243.398,134.017 244.710,133.215 247.500 C 132.298 250.692,132.122 251.999,132.317 254.177 C 132.411 255.235,132.487 257.378,132.485 258.939 L 132.481 261.778 133.790 262.365 C 135.785 263.258,135.742 263.254,135.985 262.558 C 136.103 262.218,136.200 261.521,136.200 261.009 C 136.200 260.302,136.354 259.841,136.839 259.089 L 137.478 258.100 137.620 254.400 C 137.768 250.567,137.901 249.642,139.122 243.914 C 139.784 240.807,139.863 240.096,139.997 236.000 C 140.128 232.006,140.195 231.376,140.593 230.400 C 140.955 229.510,141.054 228.822,141.109 226.800 C 141.221 222.645,142.465 218.317,143.084 219.929 C 143.381 220.705,151.364 219.381,157.100 217.605 C 159.862 216.749,160.396 216.386,162.163 214.162 C 163.567 212.396,164.550 211.562,167.734 209.438 C 172.133 206.502,171.785 206.075,166.986 208.519 C 162.023 211.046,160.676 212.122,160.416 213.767 C 160.322 214.356,160.163 214.566,159.600 214.834 C 158.599 215.312,145.737 217.272,143.500 217.287 L 141.700 217.300 139.400 216.070 C 138.135 215.394,136.542 214.615,135.861 214.339 C 134.130 213.638,133.385 213.008,131.914 211.004 C 130.269 208.764,129.408 208.043,126.749 206.683 C 123.587 205.065,123.741 205.478,123.903 199.085 C 124.086 191.852,123.692 191.221,117.868 189.412 C 115.242 188.596,114.226 187.867,111.645 184.947 C 109.296 182.291,108.251 181.480,106.634 181.057 C 103.820 180.323,103.419 179.587,104.369 176.900 C 105.437 173.877,105.491 171.288,104.494 170.834 C 103.774 170.506,103.301 169.323,103.600 168.600 C 104.219 167.106,106.627 165.787,109.846 165.177 C 113.258 164.531,113.886 164.288,115.222 163.096 C 117.274 161.265,119.615 160.739,121.826 161.610 C 123.092 162.109,123.876 162.065,123.959 161.489 C 124.028 161.009,123.541 160.529,122.714 160.264 L 122.129 160.076 122.914 159.673 C 123.551 159.347,123.839 158.990,124.436 157.785 C 124.841 156.968,125.291 156.243,125.436 156.174 C 125.581 156.105,126.031 155.907,126.436 155.734 C 128.221 154.972,131.906 151.808,132.940 150.150 C 133.868 148.662,134.340 148.524,138.100 148.645 C 141.146 148.744,142.086 148.991,142.642 149.840 C 143.099 150.537,146.783 153.264,151.700 156.544 C 156.873 159.995,157.947 160.799,158.659 161.752 C 159.528 162.916,164.951 168.341,166.400 169.496 C 168.493 171.165,169.107 171.466,170.540 171.532 C 171.570 171.579,171.980 171.705,172.684 172.189 C 173.163 172.518,174.033 172.976,174.617 173.207 C 176.073 173.781,176.084 173.792,175.615 174.229 C 174.762 175.024,175.282 175.800,176.667 175.800 C 177.166 175.800,177.659 176.025,178.430 176.607 C 179.705 177.568,180.247 177.736,181.094 177.429 C 184.961 176.031,178.054 184.133,173.667 186.141 C 171.597 187.089,170.069 189.216,169.498 191.945 C 169.097 193.860,168.095 194.666,167.564 193.500 C 167.031 192.332,165.364 193.103,163.420 195.415 C 161.373 197.851,160.588 198.357,157.269 199.380 C 154.049 200.372,153.472 201.217,156.209 200.931 C 159.407 200.596,162.318 199.400,164.900 197.360 C 167.678 195.165,167.848 195.099,169.288 195.648 C 170.770 196.212,171.200 196.026,171.200 194.819 C 171.200 192.746,174.269 189.453,176.700 188.916 C 177.539 188.731,178.798 187.711,179.931 186.300 C 180.978 184.995,181.582 184.417,181.911 184.407 C 182.325 184.394,183.386 183.070,184.401 181.300 C 185.839 178.792,186.054 178.588,187.104 178.732 C 188.915 178.980,191.000 177.960,191.000 176.826 C 191.000 175.964,191.326 175.578,192.451 175.108 C 193.428 174.700,193.535 174.715,193.679 175.287 C 193.832 175.898,194.280 176.040,195.300 175.799 C 196.750 175.456,198.068 175.549,198.474 176.023 C 198.789 176.391,198.969 176.429,199.850 176.312 L 200.865 176.178 200.332 176.875 C 199.664 177.752,199.668 177.800,200.400 177.800 C 200.859 177.800,201.000 177.891,201.000 178.184 C 201.000 178.843,202.587 179.973,205.600 181.459 C 209.552 183.408,210.046 183.438,214.500 181.997 C 219.610 180.344,221.698 180.471,220.713 182.375 C 219.789 184.161,221.146 186.930,224.787 190.687 C 227.426 193.412,227.880 194.041,227.728 194.761 C 227.392 196.355,227.376 196.561,227.575 196.684 C 227.692 196.757,228.056 196.678,228.384 196.508 C 229.274 196.048,229.561 196.126,229.948 196.932 C 230.676 198.446,231.691 198.189,231.561 196.524 C 231.420 194.724,233.032 195.312,234.416 197.565 C 235.248 198.919,235.283 198.865,234.790 196.983 C 234.471 195.763,233.075 193.853,230.695 191.378 C 227.126 187.666,225.446 185.242,225.252 183.526 C 225.102 182.188,225.579 181.807,229.400 180.216 C 231.215 179.460,233.932 178.248,235.437 177.523 C 236.942 176.799,238.580 176.097,239.077 175.964 C 239.820 175.765,239.992 175.631,240.040 175.211 C 240.091 174.777,240.214 174.691,240.855 174.638 C 241.478 174.586,241.700 174.440,242.120 173.806 C 242.979 172.507,245.302 171.788,252.813 170.496 C 258.315 169.550,263.186 167.803,265.239 166.039 C 267.390 164.193,268.200 163.744,268.200 164.400 C 268.200 164.903,268.233 164.901,269.949 164.317 C 273.056 163.261,275.295 161.936,276.200 160.619 C 276.404 160.323,276.915 160.087,277.793 159.884 C 279.472 159.495,279.832 159.172,279.676 158.196 C 279.407 156.511,280.580 157.134,283.066 159.995 C 284.258 161.367,285.140 162.183,285.831 162.555 C 287.382 163.389,287.908 163.898,288.294 164.943 C 288.909 166.607,289.551 167.527,290.544 168.168 C 291.070 168.508,291.751 169.103,292.058 169.492 C 292.365 169.881,293.298 170.659,294.132 171.222 C 297.649 173.595,297.580 173.318,295.696 177.500 C 294.087 181.075,293.800 181.958,293.800 183.338 C 293.800 184.131,293.648 184.783,293.283 185.554 C 292.589 187.020,292.497 188.262,292.879 190.992 C 293.262 193.726,293.288 195.666,292.958 196.900 C 292.753 197.667,292.767 197.943,293.050 198.707 C 293.430 199.733,293.366 200.045,292.683 200.493 C 291.953 200.971,292.065 201.201,293.799 202.774 C 295.931 204.709,296.839 206.040,298.867 210.202 C 300.847 214.264,301.424 215.129,302.739 216.007 C 304.330 217.068,304.843 217.822,305.595 220.200 L 305.942 221.300 306.201 220.755 C 306.429 220.275,306.399 220.075,305.946 219.055 C 305.077 217.098,304.186 213.910,304.079 212.375 C 303.978 210.935,303.960 210.894,302.931 209.806 C 302.355 209.198,301.641 208.205,301.344 207.600 C 301.046 206.995,299.943 205.473,298.891 204.218 C 296.256 201.072,295.603 199.877,296.195 199.285 C 297.231 198.249,297.728 193.034,297.099 189.797 C 296.686 187.667,296.778 185.910,297.355 184.932 C 298.090 183.685,298.267 182.855,298.001 181.903 C 297.661 180.691,297.863 180.053,299.247 177.947 C 302.328 173.261,302.021 171.650,297.461 168.579 C 294.879 166.840,293.779 165.707,292.733 163.708 C 292.004 162.314,291.813 162.093,291.208 161.941 C 289.848 161.599,286.201 157.538,286.011 156.155 C 285.818 154.754,283.149 154.166,280.324 154.902 C 278.670 155.333,275.882 155.800,274.964 155.800 C 274.402 155.800,273.746 156.051,272.633 156.693 C 270.412 157.974,268.074 159.037,264.673 160.312 C 263.038 160.925,260.890 161.792,259.900 162.239 C 257.453 163.344,256.198 163.760,249.700 165.622 C 241.685 167.919,237.862 169.212,233.200 171.201 C 228.944 173.017,223.510 175.200,223.245 175.200 C 223.161 175.200,222.935 174.593,222.741 173.850 C 222.032 171.123,220.345 165.666,219.852 164.500 L 219.345 163.300 219.699 161.900 C 220.270 159.643,221.092 158.098,222.062 157.455 C 223.224 156.686,230.126 146.391,230.539 144.812 C 231.058 142.825,228.337 146.020,223.990 152.500 C 222.735 154.370,221.340 156.260,220.889 156.700 C 220.438 157.140,219.818 157.882,219.510 158.348 C 218.805 159.414,217.652 160.183,215.827 160.805 C 214.185 161.364,213.971 161.670,215.350 161.488 C 216.771 161.300,217.240 161.760,217.976 164.060 C 221.193 174.112,221.220 177.310,218.075 175.788 L 217.120 175.326 215.110 175.664 C 210.638 176.418,209.240 175.987,203.728 172.158 C 198.405 168.459,198.333 168.446,193.094 170.210 C 184.754 173.019,183.380 173.245,181.000 172.200 C 180.248 171.870,179.402 171.600,179.121 171.600 C 178.727 171.600,178.517 171.420,178.213 170.825 C 177.395 169.222,175.171 168.074,173.254 168.266 C 171.024 168.489,169.903 167.724,164.532 162.315 C 160.210 157.963,158.116 156.314,152.600 152.918 C 144.782 148.105,143.578 146.985,143.886 144.815 C 144.209 142.531,144.242 142.000,144.056 142.000 C 143.742 142.000,143.268 142.647,143.024 143.408 C 142.670 144.510,141.581 144.988,137.353 145.896 C 132.375 146.965,131.719 146.503,128.086 139.358 C 123.978 131.278,124.089 130.390,129.445 128.475 C 130.245 128.189,131.430 127.603,132.077 127.174 C 134.310 125.695,134.781 125.926,136.872 129.534 C 138.101 131.654,138.216 131.696,141.676 131.291 C 146.781 130.695,148.757 131.452,153.191 135.705 C 157.286 139.633,157.686 139.151,154.024 134.700 C 151.177 131.239,150.919 130.715,151.081 128.724 C 151.341 125.518,149.746 117.039,148.972 117.517 C 148.662 117.709,148.792 119.055,149.407 122.000 C 150.259 126.084,150.131 129.552,149.083 130.774 C 149.048 130.814,148.188 130.511,147.172 130.100 C 145.177 129.292,144.728 129.269,139.750 129.723 L 138.399 129.847 138.094 129.073 C 137.926 128.648,137.556 127.796,137.271 127.179 C 136.594 125.710,136.706 125.433,138.524 124.088 C 140.277 122.792,141.140 121.574,142.407 118.607 C 143.700 115.579,144.856 114.472,145.982 115.184 C 146.627 115.593,147.759 114.518,149.457 111.881 C 151.364 108.922,151.924 107.307,152.204 103.959 C 152.447 101.041,152.660 99.868,153.351 97.618 L 153.867 95.936 153.305 95.488 L 152.743 95.039 153.158 94.370 C 153.622 93.621,154.945 92.573,156.600 91.645 C 158.101 90.803,160.167 88.945,162.662 86.193 C 163.812 84.925,165.161 83.552,165.660 83.143 C 167.718 81.457,169.845 75.000,168.342 75.000 C 167.982 75.000,167.785 75.136,167.689 75.450 M71.302 90.023 C 71.572 90.493,72.054 91.000,72.231 91.000 C 72.578 91.000,72.380 90.661,71.771 90.211 C 71.426 89.955,71.214 89.871,71.302 90.023 " stroke="none" fill="#000000" fill-rule="evenodd"></path></g></svg>
