<svg id="svg" xmlns="http://www.w3.org/2000/svg" xmlns:xlink="http://www.w3.org/1999/xlink" width="400" height="346" viewBox="0, 0, 400,346"><g id="svgg"><path id="path0" d="M209.915 0.629 C 210.550 1.856,210.326 2.817,208.888 5.040 C 207.897 6.572,207.876 6.713,208.685 6.406 C 211.088 5.492,212.583 7.239,212.017 10.299 C 211.611 12.498,211.691 12.936,212.586 13.393 C 213.683 13.952,213.699 14.002,213.709 16.800 C 213.715 18.387,213.856 20.008,214.094 21.239 C 214.425 22.950,214.438 23.309,214.203 24.289 C 213.818 25.894,214.679 27.573,216.386 28.546 C 218.267 29.619,218.349 30.014,217.517 34.000 C 216.825 37.317,216.179 38.896,215.022 40.100 C 214.494 40.650,213.551 41.836,212.927 42.735 C 211.185 45.248,210.601 45.646,206.691 46.995 C 202.375 48.483,200.007 48.925,199.428 48.350 C 199.234 48.158,197.693 48.114,192.755 48.162 C 185.658 48.230,185.938 48.182,184.280 49.617 C 182.733 50.956,182.234 51.122,180.591 50.840 C 177.911 50.380,177.729 50.442,172.982 53.412 C 167.675 56.732,167.264 56.818,163.800 55.316 C 161.050 54.125,160.352 54.105,161.550 55.251 C 162.382 56.047,164.191 56.790,166.355 57.225 C 169.786 57.915,169.839 58.092,167.742 61.900 C 164.597 67.609,164.508 67.862,165.108 69.362 C 165.505 70.354,165.324 70.838,164.010 72.289 C 163.252 73.125,163.000 73.560,163.000 74.026 C 163.000 76.083,153.399 88.268,150.414 90.000 C 147.362 91.770,146.043 94.709,145.792 100.300 C 145.626 104.004,145.243 105.734,144.305 107.017 C 143.039 108.750,142.982 108.878,143.042 109.850 C 143.107 110.921,143.058 110.960,142.345 110.400 C 141.714 109.903,141.400 109.891,141.400 110.363 C 141.400 110.869,140.541 111.605,138.903 112.505 C 137.487 113.283,135.897 114.621,135.161 115.655 C 134.604 116.437,134.780 116.495,135.870 115.886 C 136.381 115.600,136.800 115.422,136.800 115.491 C 136.800 116.020,135.814 117.313,134.855 118.041 C 134.220 118.524,133.364 119.427,132.952 120.047 C 132.025 121.448,131.221 122.063,129.779 122.474 C 129.100 122.668,128.075 123.218,127.179 123.870 C 125.487 125.101,124.915 125.410,123.453 125.888 C 122.863 126.081,122.229 126.455,122.002 126.743 C 121.491 127.393,120.373 127.304,117.701 126.400 C 114.521 125.325,113.048 125.111,111.564 125.507 C 109.224 126.131,108.656 126.222,107.476 126.161 L 106.300 126.100 105.757 125.000 C 105.458 124.395,104.801 122.370,104.297 120.500 C 102.839 115.090,102.238 113.600,100.986 112.300 C 100.563 111.860,99.875 110.939,99.458 110.253 C 99.041 109.568,97.305 107.287,95.600 105.185 C 92.298 101.113,90.600 98.735,90.600 98.180 C 90.600 97.773,92.152 96.711,94.732 95.352 C 96.944 94.188,96.971 94.151,95.350 94.519 C 93.250 94.996,92.149 95.395,90.994 96.098 C 89.021 97.298,87.742 97.095,86.344 95.360 C 84.835 93.487,84.538 93.217,83.252 92.549 C 82.508 92.163,80.865 91.516,79.600 91.112 C 74.162 89.375,72.655 88.120,72.018 84.800 C 71.644 82.851,71.419 82.593,70.218 82.735 C 68.522 82.936,68.332 82.811,64.581 79.039 C 62.645 77.093,60.530 75.004,59.881 74.398 C 58.522 73.131,57.042 71.130,56.185 69.402 C 55.421 67.862,53.936 67.492,53.463 68.723 C 53.053 69.792,56.386 74.920,58.364 76.264 C 58.879 76.614,60.830 78.389,62.700 80.209 C 65.488 82.923,66.352 83.643,67.500 84.209 C 68.837 84.869,68.910 84.942,69.130 85.834 C 69.751 88.348,71.641 91.000,72.812 91.000 C 77.062 91.000,85.942 97.221,88.371 101.900 C 88.903 102.925,90.105 104.579,91.715 106.500 C 96.291 111.963,99.175 116.862,100.311 121.100 C 100.984 123.613,101.340 124.524,101.978 125.374 L 102.484 126.048 102.020 126.424 C 101.419 126.910,99.113 126.928,94.897 126.478 C 91.905 126.158,91.868 126.159,90.949 126.578 C 89.248 127.352,86.219 126.988,85.188 125.885 C 84.369 125.008,83.747 124.800,81.946 124.800 C 78.901 124.800,78.187 125.179,74.171 128.928 C 71.521 131.402,70.849 131.740,64.100 133.999 C 57.024 136.366,56.492 136.668,57.781 137.586 C 58.507 138.103,58.924 138.112,59.054 137.614 C 59.211 137.014,61.172 136.142,65.833 134.598 C 71.371 132.765,72.905 132.013,75.239 129.988 C 79.819 126.013,84.346 125.943,86.308 129.816 C 87.269 131.712,86.189 138.163,84.503 140.595 L 83.972 141.362 84.416 143.593 C 84.965 146.347,85.135 146.129,81.434 147.409 C 77.597 148.736,77.103 149.008,76.640 150.056 C 76.432 150.527,75.674 151.634,74.957 152.515 C 73.412 154.413,72.966 155.215,73.043 155.954 C 73.092 156.428,72.977 156.559,72.166 156.946 C 71.053 157.478,70.539 158.151,70.217 159.500 C 69.831 161.112,69.398 161.470,66.200 162.816 C 64.543 163.513,63.876 163.920,63.038 164.740 C 60.823 166.909,57.272 167.679,49.700 167.631 C 42.386 167.585,38.121 167.862,35.961 168.523 C 33.079 169.406,28.612 169.386,28.268 168.489 C 28.073 167.981,28.389 167.212,29.105 166.453 C 30.296 165.190,29.743 164.400,28.437 165.499 C 27.592 166.211,27.160 167.404,27.318 168.594 C 27.438 169.498,27.407 169.591,26.798 170.128 C 26.442 170.443,25.619 171.395,24.970 172.244 C 22.022 176.103,18.600 175.516,18.600 171.151 C 18.600 169.522,18.855 169.202,20.164 169.194 L 21.100 169.188 20.268 168.444 C 19.353 167.625,19.000 167.054,19.000 166.390 C 19.000 166.029,18.922 165.978,18.550 166.093 C 17.232 166.501,17.242 166.505,16.725 165.372 C 15.953 163.679,15.026 162.825,12.200 161.200 C 9.272 159.516,8.781 158.942,7.752 156.010 C 7.095 154.137,4.878 153.303,1.619 153.704 C -1.407 154.076,0.294 155.000,4.005 155.000 C 6.536 155.000,6.684 155.098,6.888 156.900 C 7.187 159.549,8.722 161.379,12.088 163.100 C 15.236 164.710,15.585 165.899,15.203 173.700 C 15.095 175.923,16.419 178.887,17.944 179.832 C 23.705 183.402,24.829 184.446,23.400 184.900 C 22.775 185.098,22.899 185.325,24.471 186.862 C 26.755 189.094,28.066 192.311,26.997 193.060 C 26.177 193.634,27.228 194.540,28.129 194.036 C 28.705 193.713,29.383 194.207,31.038 196.153 C 33.604 199.170,36.350 201.089,36.879 200.234 C 36.935 200.143,36.093 198.996,35.008 197.684 C 33.232 195.537,32.610 194.967,31.300 194.282 C 30.051 193.629,29.459 189.200,30.620 189.200 C 30.715 189.200,30.976 189.560,31.200 190.000 C 31.510 190.609,31.727 190.800,32.104 190.800 C 32.749 190.800,32.755 190.297,32.128 189.043 C 31.868 188.525,31.501 187.629,31.313 187.054 C 30.914 185.835,30.365 185.074,30.032 185.280 C 29.691 185.491,29.750 186.413,30.132 186.835 C 31.156 187.966,28.607 186.899,27.215 185.614 C 26.262 184.734,26.269 184.800,26.811 182.000 C 27.234 179.810,26.570 177.478,25.723 178.181 C 25.283 178.546,25.317 179.105,25.821 179.785 C 27.130 181.556,24.659 181.812,22.650 180.114 C 21.707 179.317,21.724 179.287,24.950 176.033 C 28.511 172.440,28.266 172.577,31.515 172.378 C 32.982 172.288,35.488 171.948,37.190 171.609 C 40.618 170.924,41.635 170.860,42.004 171.304 C 42.202 171.543,42.639 171.597,44.042 171.554 L 45.828 171.500 46.514 172.247 L 47.200 172.994 47.200 172.209 C 47.200 171.195,47.374 171.108,49.313 171.163 C 51.230 171.216,52.099 171.436,52.726 172.025 C 54.003 173.224,62.091 170.535,65.206 167.877 C 65.835 167.339,67.437 166.385,68.988 165.622 C 71.195 164.537,71.904 164.076,72.938 163.050 C 74.441 161.560,73.966 161.593,79.400 162.598 C 86.542 163.918,88.323 164.483,89.467 165.788 C 90.436 166.893,91.214 167.097,92.846 166.674 C 94.219 166.318,94.239 166.319,96.019 166.783 C 97.325 167.124,98.073 167.215,98.780 167.121 C 99.729 166.996,99.758 167.007,100.052 167.646 C 102.665 173.330,101.317 177.348,95.738 180.502 C 93.208 181.933,93.208 181.937,95.765 181.318 C 98.735 180.599,100.611 180.320,101.436 180.475 C 103.043 180.776,107.226 184.076,108.039 185.684 C 108.993 187.570,112.004 190.070,113.629 190.326 C 115.856 190.676,118.936 192.444,119.425 193.654 C 119.611 194.113,119.698 195.682,119.725 199.072 C 119.770 204.644,119.821 205.037,120.554 205.517 L 121.096 205.872 120.458 206.133 C 119.127 206.676,114.858 207.036,110.581 206.967 C 106.322 206.898,105.800 206.981,105.800 207.734 C 105.800 208.312,105.217 209.110,104.527 209.477 C 103.750 209.889,102.902 210.986,102.691 211.850 C 102.495 212.651,102.700 212.559,104.800 210.896 C 107.259 208.949,107.600 208.848,110.124 209.326 C 111.760 209.636,113.132 209.703,118.100 209.718 C 121.400 209.728,124.299 209.750,124.543 209.768 C 125.126 209.810,126.207 210.777,127.354 212.282 C 127.864 212.952,128.731 214.023,129.282 214.663 C 130.452 216.022,130.412 216.090,128.326 216.289 C 126.430 216.471,126.000 216.589,126.000 216.927 C 126.000 217.364,126.837 217.601,130.276 218.136 C 133.413 218.623,133.973 218.766,134.641 219.243 C 134.909 219.435,135.126 219.435,135.655 219.243 C 136.981 218.764,137.652 219.518,136.550 220.250 C 136.136 220.525,136.121 220.602,136.350 221.238 C 136.711 222.235,136.178 224.400,135.572 224.400 C 135.305 224.400,132.317 222.063,130.865 220.718 C 129.323 219.292,128.946 219.170,128.103 219.833 C 127.658 220.183,127.260 220.272,126.026 220.295 C 124.529 220.324,123.200 220.752,123.200 221.205 C 123.200 221.413,123.573 221.439,126.100 221.408 C 128.565 221.377,128.828 221.509,131.200 223.960 C 132.355 225.154,133.922 226.674,134.682 227.338 L 136.064 228.546 135.523 229.898 C 134.823 231.646,134.465 234.230,134.304 238.700 C 134.143 243.176,133.940 244.763,133.203 247.300 C 132.302 250.404,132.126 251.771,132.303 254.285 C 132.919 262.982,132.089 265.364,126.904 269.782 C 123.810 272.418,122.677 273.137,120.520 273.837 C 118.172 274.599,113.957 277.656,113.400 279.000 C 112.854 280.319,113.907 283.528,116.244 287.664 C 119.095 292.712,119.844 294.757,121.097 300.928 C 122.059 305.665,122.202 305.895,122.069 302.500 C 121.919 298.685,122.193 296.698,123.121 294.857 C 124.191 292.733,123.626 292.037,122.100 293.600 C 121.112 294.611,121.101 294.609,120.688 293.350 C 120.262 292.049,119.501 290.511,117.950 287.818 C 114.382 281.622,114.149 279.818,116.767 278.663 C 117.390 278.388,118.273 277.775,118.729 277.300 C 119.418 276.582,119.754 276.399,120.729 276.210 C 126.143 275.157,136.200 265.773,136.200 261.772 C 136.200 261.121,136.640 261.026,137.792 261.427 C 138.425 261.648,138.474 261.624,139.427 260.630 C 139.968 260.066,140.700 259.458,141.055 259.279 C 142.228 258.686,142.970 258.010,144.108 256.497 C 145.258 254.969,147.235 253.167,148.744 252.270 C 149.535 251.801,150.161 251.777,149.882 252.229 C 149.525 252.808,157.175 257.600,158.457 257.600 C 158.514 257.600,159.312 257.945,160.230 258.367 C 164.536 260.346,165.407 260.501,168.267 259.797 C 170.193 259.323,172.687 259.213,175.400 259.482 C 179.923 259.931,181.155 259.598,177.846 258.822 C 171.032 257.222,168.167 257.123,167.223 258.454 C 166.731 259.148,165.729 258.778,161.400 256.302 C 159.145 255.013,156.895 253.734,156.400 253.459 C 151.566 250.778,150.718 250.030,149.595 247.456 C 149.126 246.380,148.283 244.615,147.721 243.533 L 146.700 241.566 146.742 238.933 C 146.794 235.663,146.517 234.258,145.317 231.726 C 143.922 228.779,144.006 228.478,147.239 224.822 C 149.740 221.993,151.033 220.367,151.314 219.695 C 151.552 219.127,151.712 219.055,153.934 218.514 C 159.046 217.269,160.263 216.665,161.955 214.536 C 163.523 212.561,164.693 211.532,167.500 209.654 C 172.255 206.473,171.906 206.040,166.698 208.658 C 162.096 210.971,160.400 212.316,160.400 213.651 C 160.400 214.741,159.974 214.914,155.628 215.596 C 150.864 216.342,151.089 216.344,150.817 215.564 C 150.695 215.214,150.014 214.063,149.304 213.005 C 147.603 210.475,147.404 209.860,147.166 206.400 C 146.814 201.291,146.707 200.880,145.142 198.651 C 143.951 196.954,144.318 195.726,146.337 194.650 C 148.726 193.377,150.799 190.885,150.229 189.973 C 149.328 188.530,151.145 186.982,153.400 187.273 C 155.093 187.491,155.502 187.623,157.450 188.579 C 159.571 189.621,159.629 189.600,158.911 188.058 C 157.409 184.831,155.237 182.577,152.700 181.609 C 151.710 181.232,149.823 180.387,148.507 179.731 C 146.200 178.582,146.047 178.536,144.228 178.441 C 142.014 178.325,141.956 178.501,143.897 179.428 C 144.815 179.867,145.330 180.276,145.817 180.953 C 146.924 182.495,147.624 183.205,148.329 183.499 C 149.091 183.818,149.127 184.007,148.680 185.343 C 146.701 191.261,143.569 193.124,137.308 192.108 C 135.451 191.806,134.948 191.838,135.892 192.197 C 137.993 192.996,141.050 194.709,141.772 195.493 C 143.158 196.996,144.069 200.802,143.874 204.264 C 143.719 206.999,144.120 209.326,144.910 210.288 C 147.143 213.003,148.501 216.419,147.500 216.800 C 145.162 217.689,141.806 217.350,139.325 215.975 C 138.321 215.419,136.825 214.696,136.000 214.368 C 134.325 213.703,133.290 212.823,131.898 210.881 C 130.507 208.941,128.997 207.700,126.676 206.589 C 123.720 205.173,123.886 205.634,123.966 199.078 C 124.040 193.021,124.051 193.079,122.666 191.781 C 121.538 190.722,120.694 190.280,118.326 189.504 C 114.836 188.361,114.527 188.135,110.767 183.981 C 108.951 181.975,107.689 181.134,106.134 180.894 C 104.158 180.589,103.536 179.081,104.446 176.800 C 105.496 174.167,105.567 171.345,104.596 170.860 C 103.886 170.507,103.600 170.023,103.600 169.177 C 103.600 167.363,106.199 165.820,110.477 165.094 C 113.231 164.626,114.159 164.260,115.295 163.194 C 117.284 161.326,119.489 160.758,121.557 161.580 C 122.822 162.082,123.765 162.125,123.933 161.687 C 124.134 161.163,123.677 160.480,122.995 160.284 L 122.350 160.099 123.114 159.600 C 123.605 159.278,124.046 158.743,124.349 158.100 C 125.188 156.321,125.354 156.105,125.985 155.976 C 127.333 155.701,131.861 151.976,132.994 150.210 C 133.865 148.851,134.126 148.741,136.716 148.639 C 140.052 148.508,141.686 148.841,142.576 149.832 C 143.574 150.944,146.368 153.008,151.667 156.549 C 157.040 160.140,157.988 160.855,158.623 161.800 C 159.387 162.936,165.173 168.623,166.800 169.835 C 168.805 171.330,169.390 171.600,170.628 171.600 C 171.488 171.600,171.911 171.740,172.988 172.379 C 173.710 172.808,174.636 173.264,175.047 173.394 C 175.972 173.685,176.132 173.915,175.606 174.197 C 174.691 174.687,175.243 175.800,176.401 175.800 C 176.881 175.800,177.447 176.017,178.096 176.450 C 178.632 176.808,179.257 177.211,179.485 177.347 C 179.985 177.645,181.128 177.678,181.300 177.400 C 181.368 177.290,181.598 177.200,181.812 177.200 C 183.911 177.200,177.737 184.157,174.074 185.919 C 171.345 187.231,170.011 189.044,169.386 192.286 C 169.079 193.886,168.054 194.576,167.569 193.511 C 167.076 192.429,165.681 192.905,164.023 194.721 C 161.551 197.427,161.115 197.836,160.229 198.284 C 159.718 198.543,158.625 198.954,157.800 199.197 C 154.044 200.305,153.195 201.149,156.050 200.937 C 159.217 200.701,162.270 199.484,164.853 197.427 C 167.530 195.296,168.160 195.059,169.423 195.712 C 170.593 196.317,171.083 196.061,171.222 194.770 C 171.343 193.643,171.729 192.849,172.717 191.700 C 173.249 191.082,173.277 191.218,172.851 192.350 C 172.697 192.760,173.201 192.637,174.363 191.982 L 175.458 191.364 176.521 191.698 C 178.535 192.331,183.651 192.132,185.912 191.332 C 187.743 190.684,193.200 195.005,193.200 197.103 C 193.200 198.336,194.306 202.501,196.069 207.900 C 198.062 214.009,198.400 215.359,198.400 217.219 C 198.400 223.407,199.800 229.858,201.497 231.489 C 202.278 232.239,202.635 232.769,202.853 233.503 C 203.016 234.052,203.431 234.976,203.775 235.559 C 204.536 236.847,204.554 237.076,203.889 236.949 C 203.397 236.855,202.800 237.216,202.800 237.608 C 202.800 237.706,203.110 238.097,203.489 238.476 C 203.947 238.933,204.292 239.559,204.514 240.333 C 205.045 242.179,205.305 242.559,206.201 242.800 C 208.346 243.378,205.985 244.645,201.736 245.197 C 199.442 245.495,196.270 245.447,195.118 245.098 C 192.955 244.442,190.606 245.011,188.307 246.748 C 186.253 248.300,185.245 248.435,185.457 247.129 C 185.705 245.598,184.070 245.215,180.600 245.989 C 178.160 246.533,176.935 246.404,174.133 245.309 C 169.833 243.627,169.584 244.536,173.776 246.612 C 176.067 247.747,177.951 248.164,181.300 248.278 C 184.815 248.398,184.856 248.412,185.595 249.722 C 186.312 250.993,186.874 251.139,187.547 250.229 C 188.697 248.673,192.280 248.041,195.154 248.887 C 197.146 249.473,197.709 249.471,200.034 248.876 C 200.839 248.669,201.621 248.608,202.372 248.693 C 203.577 248.828,204.046 248.717,206.900 247.618 C 208.879 246.856,209.356 246.846,210.024 247.554 C 211.118 248.713,213.858 249.331,214.235 248.503 C 214.609 247.683,215.996 247.598,217.149 248.325 C 217.528 248.564,217.561 248.668,217.361 248.988 C 217.040 249.502,217.316 249.807,218.916 250.702 C 220.221 251.431,220.600 251.855,220.600 252.584 C 220.600 252.848,220.896 253.182,221.429 253.518 C 222.247 254.035,222.236 254.383,221.400 254.400 C 220.678 254.415,220.501 254.756,221.004 255.163 C 221.410 255.492,221.446 255.604,221.229 255.865 C 220.825 256.352,221.410 258.284,222.882 261.323 C 224.750 265.181,225.284 265.667,229.200 267.072 C 234.744 269.061,236.080 270.334,233.832 271.486 C 232.169 272.339,231.513 275.790,232.087 280.669 C 232.496 284.155,232.422 285.029,231.672 285.547 C 230.286 286.506,230.171 287.200,231.400 287.200 C 232.158 287.200,232.470 287.682,232.214 288.457 C 231.706 289.997,232.532 290.434,233.602 289.191 C 234.822 287.773,235.554 288.784,235.334 291.583 L 235.215 293.100 235.756 291.900 C 236.365 290.549,236.472 287.477,236.081 282.562 C 235.628 276.862,236.575 273.715,238.627 274.104 C 240.054 274.374,240.377 274.450,241.200 274.712 C 243.831 275.550,246.446 276.227,250.401 277.092 C 251.488 277.330,252.362 277.634,252.756 277.910 C 253.184 278.212,253.234 278.203,253.593 277.765 C 253.917 277.370,254.030 277.338,254.337 277.550 C 255.113 278.086,255.615 278.206,256.063 277.963 C 257.274 277.308,259.627 278.220,266.866 282.151 C 271.095 284.448,273.032 285.176,277.600 286.183 C 280.912 286.914,281.897 287.181,284.693 288.106 C 287.647 289.084,289.209 289.282,290.937 288.899 C 291.417 288.793,291.845 288.887,292.674 289.279 C 294.188 289.995,294.818 289.964,295.200 289.156 C 295.934 287.602,296.503 288.687,296.694 292.000 C 296.856 294.827,297.124 296.309,297.620 297.124 C 298.113 297.932,298.099 298.671,297.559 300.507 C 297.156 301.878,297.141 302.102,297.382 303.152 C 297.527 303.784,297.714 304.840,297.797 305.500 C 297.880 306.160,298.230 307.658,298.574 308.830 C 299.615 312.371,299.683 312.251,295.400 314.429 L 292.900 315.700 294.000 315.763 C 296.385 315.899,302.276 314.468,303.050 313.565 C 303.649 312.865,303.513 310.986,302.675 308.366 C 301.782 305.576,301.604 303.519,302.077 301.443 C 302.469 299.718,302.476 299.949,302.010 299.412 C 301.123 298.389,300.703 292.287,301.461 291.445 C 302.593 290.189,306.432 289.074,309.000 289.256 C 311.134 289.408,312.483 290.200,310.607 290.200 C 309.747 290.200,309.400 290.488,309.400 291.202 C 309.400 292.564,310.341 292.712,312.502 291.691 L 313.646 291.149 313.525 290.325 C 313.458 289.871,313.347 289.206,313.278 288.847 C 312.906 286.895,314.542 286.027,317.110 286.815 C 319.259 287.475,319.504 288.012,317.788 288.302 C 316.874 288.457,316.796 288.643,317.509 288.968 C 318.344 289.348,318.800 289.239,319.454 288.500 C 319.931 287.961,320.229 287.800,320.747 287.800 C 321.118 287.800,322.059 287.655,322.839 287.478 C 323.836 287.251,324.589 287.200,325.378 287.305 C 327.719 287.617,329.005 287.510,330.969 286.839 C 333.586 285.945,333.632 285.953,335.184 287.583 C 336.787 289.268,337.039 289.400,338.637 289.399 C 340.804 289.397,341.729 288.980,342.624 287.600 C 342.920 287.145,343.082 287.098,344.432 287.077 C 345.413 287.062,346.143 286.936,346.590 286.705 C 348.101 285.924,349.651 286.730,351.137 289.072 C 352.270 290.857,353.015 291.655,354.350 292.517 C 356.770 294.079,355.427 294.551,350.900 293.729 C 350.020 293.569,349.267 293.470,349.227 293.509 C 349.068 293.662,351.640 295.166,352.809 295.603 L 354.050 296.067 357.219 294.434 C 360.717 292.631,361.036 292.550,361.531 293.350 C 362.122 294.304,362.376 294.423,363.063 294.067 C 364.308 293.424,368.600 294.350,368.600 295.262 C 368.600 295.757,369.375 296.557,370.455 297.176 C 371.837 297.967,372.400 298.517,372.400 299.073 C 372.400 299.340,372.862 300.062,373.514 300.815 C 374.233 301.644,375.081 303.007,375.904 304.655 C 377.390 307.631,377.666 308.046,379.345 309.842 C 380.475 311.051,380.600 311.268,380.600 312.029 C 380.600 313.300,381.272 314.478,382.569 315.480 C 383.191 315.960,383.925 316.725,384.200 317.180 C 385.511 319.345,385.980 319.944,387.000 320.757 C 387.605 321.239,388.259 321.761,388.453 321.917 C 388.781 322.181,388.783 322.253,388.489 322.950 C 387.692 324.842,388.149 326.618,389.554 327.085 C 390.829 327.508,391.926 328.276,392.306 329.012 C 392.850 330.064,392.238 330.343,391.236 329.500 C 390.047 328.499,390.093 329.222,391.350 331.303 C 392.468 333.153,392.702 333.294,392.874 332.219 C 393.055 331.084,393.273 331.062,394.452 332.060 C 395.029 332.548,396.274 333.493,397.219 334.161 C 400.219 336.280,400.341 337.446,397.749 339.215 L 396.770 339.883 395.880 339.411 C 395.391 339.152,394.431 338.314,393.746 337.548 C 391.126 334.623,390.766 334.320,388.999 333.559 C 388.067 333.158,387.270 332.863,387.229 332.904 C 387.019 333.115,394.662 341.518,395.421 341.911 C 396.165 342.296,398.315 342.793,399.250 342.797 L 400.000 342.800 400.000 336.269 L 400.000 329.739 398.598 328.319 C 395.433 325.114,393.895 322.417,394.102 320.437 C 394.290 318.648,393.688 317.472,391.657 315.659 C 388.858 313.159,388.261 312.455,387.284 310.500 C 386.768 309.466,385.752 307.873,385.027 306.960 C 382.668 303.988,380.496 299.867,380.638 298.635 L 380.700 298.100 383.527 298.167 C 388.506 298.286,393.046 297.156,393.616 295.658 C 393.867 294.998,394.168 294.761,395.866 293.884 C 397.393 293.096,397.344 293.352,396.277 291.700 C 395.818 290.989,395.776 291.001,391.641 293.086 C 385.492 296.186,383.834 296.224,378.469 293.385 C 371.800 289.855,371.109 289.133,371.902 286.518 C 372.342 285.067,372.299 285.048,371.112 286.171 C 369.910 287.308,368.968 287.483,366.660 286.998 C 364.510 286.547,362.522 286.708,360.756 287.476 C 358.567 288.429,356.756 287.315,355.103 284.000 C 353.943 281.671,354.160 281.788,351.015 281.821 C 349.303 281.839,347.986 281.755,347.451 281.593 C 346.707 281.369,346.555 281.379,346.235 281.669 C 345.781 282.080,345.103 282.089,344.000 281.700 C 342.954 281.331,342.200 281.314,342.200 281.660 C 342.200 282.161,341.780 282.383,341.229 282.173 C 340.621 281.942,340.407 281.660,340.403 281.085 C 340.395 280.057,338.605 279.198,336.200 279.069 C 334.455 278.976,333.557 279.152,329.500 280.385 C 322.807 282.420,320.113 282.193,319.280 279.522 C 318.363 276.581,318.583 275.373,321.199 269.000 C 323.456 263.503,324.030 261.617,324.182 259.200 C 324.297 257.360,324.327 257.265,325.129 256.200 C 326.486 254.396,334.436 241.012,334.729 240.036 C 334.909 239.440,334.943 238.925,334.830 238.517 C 334.717 238.106,334.759 237.502,334.955 236.713 C 335.194 235.752,335.206 235.353,335.015 234.613 C 334.885 234.111,334.728 233.496,334.665 233.247 C 334.576 232.889,334.777 232.575,335.626 231.747 C 336.270 231.119,337.010 230.100,337.475 229.200 C 337.902 228.375,338.479 227.454,338.759 227.154 C 339.891 225.938,343.200 225.446,343.200 226.494 C 343.200 227.002,343.699 226.845,345.032 225.916 C 347.126 224.457,348.643 223.637,349.700 223.391 C 351.905 222.880,352.231 222.728,352.967 221.866 C 353.383 221.379,354.263 220.716,355.000 220.333 C 355.917 219.857,356.536 219.352,357.100 218.620 C 357.540 218.049,358.184 217.402,358.531 217.183 C 359.875 216.335,360.412 213.326,359.450 212.025 C 358.552 210.810,359.373 208.951,360.925 208.683 C 362.134 208.475,362.150 208.456,362.234 207.144 C 362.441 203.914,366.705 197.796,370.274 195.609 C 370.940 195.201,372.400 193.859,373.845 192.328 C 377.236 188.734,377.457 188.596,380.600 188.097 C 381.627 187.934,382.034 187.786,382.596 187.375 C 383.062 187.033,383.181 187.027,384.184 187.293 C 385.321 187.596,385.600 187.557,385.600 187.100 C 385.600 186.180,383.411 185.908,381.903 186.641 C 380.274 187.432,377.186 186.249,376.128 184.428 C 375.221 182.867,374.316 176.365,374.773 174.690 C 375.170 173.233,375.839 172.813,377.911 172.717 C 378.895 172.672,380.825 172.570,382.200 172.491 C 386.483 172.245,389.174 173.006,391.389 175.092 C 392.000 175.668,393.085 176.530,393.800 177.009 C 395.628 178.234,396.942 179.517,397.214 180.343 L 397.447 181.048 397.890 180.493 C 398.301 179.977,398.380 179.954,398.996 180.169 C 399.988 180.514,400.000 180.501,400.000 179.113 L 400.000 177.827 399.401 177.844 C 398.654 177.865,396.650 176.544,392.420 173.244 C 388.671 170.318,387.916 169.906,386.623 170.078 C 385.984 170.163,385.332 170.093,384.591 169.860 C 382.898 169.328,380.023 169.400,377.000 170.048 C 375.625 170.343,374.084 170.626,373.575 170.675 C 372.667 170.764,370.994 171.467,371.006 171.754 C 371.010 171.834,371.136 172.062,371.286 172.260 C 371.461 172.491,371.521 172.904,371.453 173.410 C 371.354 174.153,371.378 174.200,371.862 174.200 C 372.496 174.200,372.694 174.473,372.299 174.801 C 371.707 175.292,371.522 176.461,371.868 177.525 C 372.042 178.061,372.179 179.085,372.173 179.800 C 372.154 181.921,373.290 184.440,374.741 185.494 C 375.728 186.211,375.791 186.490,375.050 186.877 C 374.364 187.235,373.541 188.110,373.139 188.910 C 372.677 189.827,370.169 192.114,367.117 194.402 C 363.400 197.188,363.587 196.932,360.550 203.400 C 360.059 204.445,359.282 205.750,358.823 206.300 C 357.631 207.729,356.862 210.284,356.972 212.448 C 356.994 212.873,357.168 213.076,357.747 213.349 C 358.787 213.838,358.842 214.996,357.826 215.002 C 357.153 215.006,355.286 216.054,353.327 217.527 C 350.888 219.360,349.569 220.123,348.500 220.316 C 347.407 220.513,346.300 221.006,343.600 222.499 C 340.999 223.936,339.062 224.600,337.469 224.600 C 335.938 224.600,335.384 224.956,334.607 226.437 C 332.438 230.573,332.471 230.558,330.411 228.399 L 328.883 226.797 327.784 227.777 C 327.179 228.316,326.443 229.105,326.148 229.530 L 325.613 230.303 326.204 232.002 C 326.605 233.155,326.796 234.091,326.797 234.918 C 326.800 236.075,326.842 236.179,327.626 236.979 C 329.153 238.536,328.457 241.042,325.601 244.274 C 324.836 245.140,323.932 246.283,323.592 246.813 C 322.916 247.866,321.912 248.469,320.447 248.701 C 319.336 248.877,319.273 249.036,319.140 252.000 C 319.078 253.375,318.934 254.995,318.820 255.600 C 318.707 256.205,318.427 258.140,318.198 259.900 C 317.188 267.679,313.309 279.634,311.603 280.229 C 311.041 280.425,310.400 281.261,310.400 281.800 C 310.400 281.920,310.641 282.243,310.936 282.516 C 312.267 283.749,308.620 284.422,306.215 283.387 C 304.700 282.735,302.393 282.800,298.739 283.597 C 297.512 283.864,291.655 283.800,290.000 283.502 C 289.175 283.353,288.188 283.174,287.807 283.105 C 286.889 282.938,285.172 282.446,281.300 281.240 C 279.540 280.692,277.200 280.000,276.100 279.702 C 274.277 279.208,272.479 278.581,270.900 277.888 C 270.570 277.743,269.715 277.390,269.000 277.104 C 268.285 276.817,267.520 276.500,267.300 276.400 C 266.822 276.182,266.267 275.955,262.100 274.263 C 257.532 272.410,251.777 270.496,249.565 270.095 C 248.654 269.930,240.645 267.468,240.432 267.288 C 240.394 267.256,241.095 265.451,241.989 263.277 C 242.884 261.104,243.895 258.483,244.236 257.454 C 245.130 254.756,247.668 252.752,250.300 252.664 C 251.946 252.609,252.562 252.480,255.100 251.654 C 262.374 249.287,265.400 248.147,265.400 247.773 C 265.400 247.198,261.635 248.003,256.077 249.767 C 251.698 251.157,250.708 251.426,249.953 251.430 C 249.594 251.432,248.850 251.579,248.300 251.756 C 246.966 252.185,245.421 252.098,243.764 251.501 C 242.310 250.976,242.027 251.049,242.997 251.699 C 244.413 252.648,244.310 253.214,241.553 259.618 C 239.753 263.797,239.088 265.002,238.294 265.522 C 237.533 266.021,236.597 265.691,236.161 264.770 C 235.734 263.867,234.948 263.205,233.236 262.305 C 229.890 260.547,229.073 259.269,226.995 252.544 C 225.102 246.417,225.152 246.473,219.900 244.620 C 211.855 241.781,210.488 241.034,209.341 238.852 C 208.945 238.098,208.440 237.317,208.220 237.118 C 207.874 236.805,207.835 236.589,207.934 235.528 C 208.111 233.625,207.135 231.697,205.467 230.652 C 203.853 229.640,203.198 227.612,202.701 222.079 C 202.080 215.164,201.518 212.743,198.771 205.142 C 195.853 197.069,195.688 195.248,197.731 193.690 C 199.643 192.232,199.576 191.224,197.645 192.401 C 196.504 193.097,195.286 192.775,191.128 190.678 C 189.902 190.060,188.486 189.430,187.979 189.278 C 187.473 189.126,186.726 188.776,186.320 188.501 C 185.707 188.085,185.346 188.000,184.185 188.000 C 182.525 188.000,181.604 187.660,180.982 186.818 C 180.731 186.478,180.388 186.200,180.222 186.200 C 179.806 186.200,181.300 184.690,182.005 184.398 C 182.614 184.146,183.311 183.236,184.603 181.007 C 185.819 178.907,186.159 178.606,187.154 178.739 C 188.843 178.966,191.306 177.748,191.060 176.808 C 190.906 176.218,191.370 175.594,192.266 175.187 C 193.322 174.708,193.600 174.706,193.600 175.176 C 193.600 175.890,194.096 176.076,195.336 175.827 C 196.987 175.495,197.742 175.545,198.396 176.029 C 198.873 176.381,199.142 176.435,199.905 176.330 L 200.833 176.203 200.316 176.817 C 199.669 177.587,199.666 177.800,200.305 177.800 C 200.862 177.800,201.200 178.400,201.200 179.391 C 201.200 180.401,201.776 180.855,203.130 180.912 C 203.985 180.948,204.722 181.148,205.713 181.612 C 209.585 183.426,210.086 183.449,214.600 182.012 C 219.595 180.422,221.042 180.431,220.713 182.048 C 220.380 183.689,220.377 184.029,220.692 184.974 C 221.227 186.587,222.493 188.344,224.894 190.803 C 227.674 193.652,227.920 194.076,227.576 195.419 C 227.249 196.694,227.510 197.057,228.383 196.542 C 229.221 196.047,229.560 196.117,229.866 196.850 C 230.538 198.457,231.439 198.317,231.600 196.581 C 231.677 195.748,231.782 195.488,232.062 195.435 C 232.493 195.353,234.083 196.925,234.759 198.101 L 235.218 198.900 235.101 198.100 C 234.846 196.341,233.711 194.545,231.156 191.855 C 227.037 187.520,225.527 185.384,225.274 183.536 C 225.090 182.197,225.555 181.824,229.400 180.224 C 231.215 179.468,234.063 178.209,235.729 177.426 C 237.395 176.642,239.060 175.968,239.429 175.927 C 240.016 175.862,240.101 175.780,240.106 175.276 C 240.112 174.757,240.191 174.690,240.903 174.600 C 241.524 174.522,241.781 174.361,242.097 173.852 C 242.851 172.640,245.829 171.673,251.800 170.701 C 257.538 169.766,259.612 169.119,264.100 166.863 C 265.750 166.034,268.123 165.001,269.373 164.569 C 273.027 163.305,275.371 162.012,276.029 160.895 C 276.336 160.376,276.609 160.183,277.166 160.089 C 279.019 159.779,280.244 159.035,279.795 158.494 C 279.506 158.146,279.618 157.358,279.972 157.242 C 280.130 157.190,281.311 158.258,282.772 159.776 C 284.574 161.646,285.616 162.562,286.400 162.963 C 287.538 163.545,287.564 163.581,288.743 166.085 C 289.166 166.985,289.588 167.493,290.500 168.202 L 291.700 169.135 291.673 171.318 C 291.658 172.518,291.613 174.130,291.573 174.900 C 291.504 176.219,291.554 176.416,292.433 178.300 C 293.975 181.609,294.164 183.403,293.200 185.600 C 292.821 186.463,292.600 187.303,292.600 187.878 C 292.600 188.501,292.404 189.175,291.976 190.015 C 291.325 191.297,291.320 191.393,291.772 193.565 C 291.895 194.159,292.153 194.599,292.592 194.965 C 293.225 195.495,293.229 195.509,292.993 196.445 C 292.771 197.327,292.789 197.775,293.106 199.301 C 293.206 199.782,293.129 199.997,292.715 200.385 C 291.982 201.074,292.039 201.216,293.596 202.596 C 295.628 204.398,296.614 205.837,298.806 210.200 C 301.047 214.659,301.409 215.201,302.759 216.110 C 305.841 218.185,307.019 223.258,305.416 227.551 C 305.077 228.458,304.521 229.943,304.179 230.850 C 303.474 232.722,303.212 235.177,303.573 236.508 C 304.261 239.037,310.023 245.657,310.833 244.847 C 311.293 244.387,310.715 243.476,308.529 241.221 C 304.953 237.531,304.921 236.575,308.104 228.500 C 310.675 221.978,310.532 220.041,307.255 216.950 C 306.409 216.152,305.376 215.173,304.959 214.774 C 303.614 213.486,303.875 213.177,306.500 212.952 C 307.073 212.902,307.047 212.870,305.900 212.220 C 304.295 211.311,302.192 209.180,301.537 207.800 C 301.250 207.195,300.115 205.620,299.015 204.300 C 297.915 202.980,296.777 201.466,296.487 200.935 L 295.959 199.970 296.473 198.824 C 297.539 196.449,297.814 192.504,297.128 189.437 C 296.495 186.611,296.792 185.675,298.030 186.591 C 298.826 187.179,298.834 187.149,298.418 185.280 C 298.220 184.395,298.101 183.383,298.153 183.032 C 298.204 182.681,298.139 182.137,298.009 181.821 C 297.652 180.961,298.018 179.920,299.434 177.767 C 302.237 173.506,301.950 171.546,298.142 168.961 C 297.363 168.432,297.008 168.068,297.082 167.875 C 297.708 166.244,297.836 165.314,297.594 164.172 C 297.140 162.033,297.737 159.943,299.265 158.323 C 300.340 157.184,300.947 157.270,306.100 159.299 C 311.865 161.569,312.353 161.680,316.380 161.640 C 320.911 161.595,320.928 161.581,317.731 160.420 C 315.549 159.628,314.600 159.137,314.600 158.799 C 314.600 158.458,315.654 158.332,316.535 158.567 C 317.671 158.871,321.067 158.170,321.563 157.529 C 321.773 157.258,322.240 154.973,322.112 154.845 C 322.063 154.796,321.770 154.934,321.462 155.151 C 320.398 155.899,319.544 156.238,318.267 156.419 C 317.562 156.519,316.078 156.870,314.967 157.200 C 312.075 158.059,311.035 157.984,307.200 156.638 C 303.358 155.288,301.000 154.083,301.000 153.467 C 301.000 153.055,299.008 151.213,297.036 149.800 C 296.031 149.080,295.217 148.351,295.211 148.166 C 295.205 147.983,294.906 147.651,294.547 147.429 C 291.906 145.797,292.561 143.642,296.049 142.484 C 297.615 141.963,297.715 142.276,296.507 143.918 C 296.189 144.351,296.513 144.442,297.262 144.129 C 298.115 143.772,298.437 143.235,298.277 142.434 C 298.179 141.944,298.258 141.749,298.710 141.367 C 299.014 141.110,299.496 140.634,299.781 140.309 C 301.611 138.224,302.104 137.785,302.873 137.555 C 303.914 137.243,304.808 136.343,306.245 134.159 C 307.722 131.914,307.789 131.881,310.194 132.199 C 313.271 132.606,316.422 130.178,315.900 127.802 C 315.736 127.053,316.023 126.542,316.919 125.988 C 317.317 125.742,317.956 125.051,318.339 124.453 C 319.500 122.638,320.726 122.393,323.444 123.434 C 324.925 124.001,325.333 124.069,327.300 124.084 C 330.670 124.109,330.566 124.656,326.800 126.701 C 324.127 128.152,319.564 130.832,319.641 130.905 C 319.791 131.049,327.416 128.931,328.300 128.500 C 329.554 127.889,330.213 126.916,331.525 123.738 C 332.061 122.440,332.773 121.055,333.107 120.661 L 333.715 119.946 334.375 120.287 C 335.189 120.708,335.482 120.608,335.920 119.760 C 336.716 118.221,340.297 116.683,341.194 117.495 C 341.513 117.784,341.853 117.810,343.689 117.687 C 345.673 117.554,345.845 117.572,346.258 117.960 C 346.539 118.225,347.184 118.454,348.024 118.588 C 349.629 118.844,350.487 119.137,352.308 120.051 C 354.397 121.100,356.309 121.726,358.186 121.976 C 359.853 122.199,360.719 122.556,360.931 123.108 C 361.206 123.825,362.439 124.277,364.488 124.412 C 366.051 124.515,366.790 124.670,367.800 125.107 C 368.866 125.568,369.494 125.690,371.291 125.785 L 373.482 125.900 373.836 126.900 C 374.519 128.831,375.859 129.689,377.269 129.100 C 378.806 128.458,381.640 128.929,380.985 129.718 C 380.849 129.882,380.385 130.000,379.876 130.000 C 378.278 130.000,379.135 130.710,381.784 131.579 C 383.467 132.132,383.511 132.121,383.020 131.289 C 382.221 129.935,382.681 129.832,389.182 129.918 C 391.290 129.946,391.903 131.190,391.041 133.689 C 390.556 135.095,388.656 135.364,385.375 134.491 C 383.545 134.004,379.721 134.399,378.967 135.153 C 378.755 135.365,388.179 136.975,390.647 137.148 C 393.995 137.383,395.761 135.541,395.863 131.709 L 395.900 130.300 395.216 130.300 C 394.356 130.300,394.111 129.650,394.531 128.480 C 394.740 127.899,394.780 127.140,394.689 125.500 C 394.582 123.566,394.616 123.191,394.968 122.400 C 395.408 121.413,395.866 118.605,395.671 118.095 C 395.603 117.919,395.702 117.203,395.892 116.503 C 396.179 115.441,396.201 115.006,396.023 113.858 C 395.611 111.208,396.248 110.273,398.413 110.346 C 400.454 110.416,400.549 109.637,398.552 109.208 C 397.172 108.912,396.337 108.358,395.663 107.292 C 394.990 106.227,394.894 106.205,394.622 107.050 C 394.147 108.531,393.974 109.642,393.807 112.300 C 393.662 114.598,392.642 124.002,392.523 124.139 C 392.393 124.287,388.616 124.615,387.014 124.617 C 382.483 124.623,377.255 122.877,376.518 121.112 C 375.928 119.701,373.617 118.800,370.585 118.800 C 368.212 118.800,367.060 118.545,364.820 117.523 C 363.760 117.040,362.004 116.448,360.900 116.202 C 356.588 115.239,351.883 112.915,352.259 111.934 C 352.319 111.779,353.214 111.062,354.250 110.340 C 358.056 107.686,360.679 104.283,360.700 101.970 C 360.716 100.235,362.113 97.267,363.627 95.754 C 364.786 94.595,364.765 94.733,363.903 93.976 C 362.032 92.333,362.566 90.340,366.756 83.316 C 369.641 78.480,370.799 75.870,370.218 75.511 C 369.829 75.271,369.426 75.677,368.680 77.061 C 368.222 77.910,367.370 79.034,366.602 79.801 C 365.635 80.768,364.965 81.719,364.000 83.493 C 362.561 86.140,361.832 87.099,361.123 87.276 C 360.048 87.546,359.748 90.348,360.565 92.481 C 361.120 93.929,361.062 94.242,359.799 96.652 C 359.266 97.669,358.321 99.656,357.698 101.069 C 354.700 107.867,353.099 108.969,344.440 110.195 C 339.456 110.901,339.068 110.796,338.085 108.482 C 337.473 107.041,337.242 107.105,337.214 108.720 C 337.193 109.976,336.555 110.704,334.400 111.935 C 332.245 113.166,330.847 114.431,329.986 115.929 C 328.684 118.195,326.757 118.439,323.176 116.789 C 320.995 115.784,320.955 115.792,318.900 117.590 C 318.020 118.360,316.812 119.240,316.216 119.545 C 315.620 119.850,315.058 120.258,314.966 120.450 C 314.875 120.642,314.724 120.958,314.631 121.150 C 314.538 121.343,313.925 121.725,313.270 122.000 C 311.605 122.698,311.555 122.742,311.825 123.246 C 312.276 124.090,310.719 124.577,310.054 123.800 C 308.604 122.108,304.908 124.432,301.679 129.068 C 297.144 135.578,294.974 137.257,292.896 135.867 C 289.968 133.907,289.430 132.970,287.637 126.700 C 285.782 120.214,285.179 118.741,283.328 116.171 C 282.701 115.300,282.653 115.116,282.544 113.171 C 282.138 105.861,280.166 94.517,279.214 94.008 C 278.981 93.883,278.515 93.197,278.178 92.484 C 277.699 91.472,277.327 91.011,276.482 90.387 C 275.285 89.503,275.307 89.554,275.630 88.345 C 275.815 87.652,275.796 87.101,275.530 85.529 C 275.349 84.454,275.200 83.248,275.200 82.850 C 275.200 81.225,276.908 79.052,278.011 79.272 C 278.759 79.422,278.928 79.170,279.608 76.905 C 280.307 74.580,281.010 73.129,281.890 72.200 C 282.814 71.224,283.000 70.783,283.000 69.563 C 283.000 68.797,283.168 68.145,283.600 67.232 C 284.086 66.205,284.200 65.702,284.200 64.585 C 284.200 63.826,284.306 62.809,284.436 62.325 C 284.863 60.729,283.117 57.800,281.739 57.800 C 280.358 57.800,280.076 55.418,281.287 53.980 L 281.797 53.373 281.215 52.636 C 279.494 50.458,278.658 42.406,279.841 39.400 C 280.444 37.869,280.722 36.249,280.991 32.700 C 281.289 28.778,281.477 28.300,283.731 25.742 C 284.195 25.216,284.603 24.541,284.637 24.242 C 284.688 23.802,284.916 23.597,285.850 23.152 C 287.443 22.393,287.355 21.454,285.741 21.986 C 284.951 22.247,284.243 22.961,283.589 24.155 C 282.343 26.430,278.754 26.788,276.226 24.887 C 271.148 21.071,269.213 17.720,271.210 16.201 C 271.572 15.926,272.756 14.864,273.841 13.842 C 276.015 11.793,278.208 10.262,279.959 9.572 C 281.534 8.951,290.753 8.854,291.595 9.450 C 292.273 9.930,292.365 9.897,292.437 9.150 C 292.505 8.446,292.681 8.357,295.179 7.759 C 297.188 7.277,297.063 6.539,294.931 6.292 C 294.060 6.191,293.605 6.023,293.258 5.677 C 292.664 5.082,292.671 5.082,292.318 5.764 C 291.839 6.691,290.932 6.832,284.400 6.995 C 277.883 7.158,277.516 7.225,275.481 8.602 C 273.712 9.800,271.320 11.938,270.200 13.323 C 267.434 16.744,266.726 17.315,264.277 18.111 C 263.410 18.393,262.043 18.983,261.240 19.423 C 255.413 22.610,248.026 17.572,248.157 10.500 C 248.179 9.290,248.052 7.201,247.873 5.858 C 247.520 3.200,247.684 2.087,248.619 0.773 C 249.155 0.020,249.117 -0.029,248.050 0.039 C 246.149 0.161,245.745 1.826,246.309 7.220 C 246.759 11.539,246.345 15.634,245.447 15.725 C 245.311 15.739,245.035 15.761,244.833 15.775 C 244.632 15.789,243.214 16.580,241.683 17.534 C 236.512 20.755,235.790 21.044,230.371 22.072 C 227.146 22.683,226.217 23.127,223.400 25.399 C 220.183 27.994,219.256 28.363,217.644 27.689 C 216.298 27.127,215.046 25.335,215.493 24.611 C 215.906 23.943,215.978 22.186,215.698 19.630 C 215.534 18.128,215.415 16.347,215.435 15.671 C 215.466 14.603,215.365 14.224,214.659 12.771 C 213.175 9.713,211.768 4.589,211.757 2.200 C 211.748 0.262,211.598 0.000,210.500 -0.000 L 209.590 -0.000 209.915 0.629 M249.650 19.655 C 250.786 20.462,251.419 21.247,251.584 22.050 C 252.156 24.851,261.808 23.865,263.587 20.823 C 264.118 19.916,265.158 19.200,265.947 19.200 C 266.393 19.200,266.674 19.432,267.375 20.378 C 267.715 20.837,267.748 20.843,268.238 20.522 L 268.747 20.189 268.854 21.138 C 268.943 21.929,269.088 22.193,269.730 22.733 C 270.488 23.370,270.964 23.837,272.451 25.398 C 273.589 26.592,275.840 27.600,277.371 27.600 C 278.749 27.600,278.748 27.599,278.303 29.064 C 278.077 29.808,278.057 30.247,278.215 30.981 C 278.486 32.245,278.071 35.002,276.987 39.150 C 275.889 43.352,275.871 44.569,276.856 48.100 C 277.678 51.048,278.009 52.864,277.862 53.630 C 277.414 55.974,279.935 60.428,281.448 59.964 C 282.748 59.565,283.186 60.321,282.314 61.464 C 281.612 62.384,281.067 63.761,280.489 66.071 C 279.874 68.529,279.085 70.681,278.671 71.024 C 278.013 71.570,277.150 73.085,276.320 75.151 C 274.964 78.524,274.460 79.375,272.871 80.975 C 271.073 82.784,271.043 82.891,271.575 85.564 C 272.349 89.452,272.621 89.298,266.774 88.283 C 264.613 87.908,263.112 88.000,261.239 88.621 C 259.686 89.137,259.028 89.037,257.700 88.082 C 256.240 87.033,255.934 86.956,253.361 86.986 C 251.455 87.007,250.652 86.919,249.025 86.506 C 245.872 85.707,245.050 85.803,235.400 88.094 C 232.815 88.708,229.959 89.266,229.052 89.335 L 227.405 89.459 226.408 88.527 C 225.373 87.559,224.699 87.200,223.914 87.200 C 223.243 87.200,222.509 86.539,221.797 85.295 C 220.963 83.837,219.488 82.251,217.805 81.004 C 216.212 79.822,216.125 79.673,216.646 79.003 C 216.951 78.610,217.004 78.326,216.902 77.641 C 216.736 76.535,217.005 76.203,218.074 76.191 L 218.900 76.182 217.800 75.258 C 217.195 74.749,215.800 73.418,214.699 72.300 C 212.626 70.193,212.110 69.800,211.418 69.800 C 211.170 69.800,210.892 69.572,210.708 69.216 C 210.542 68.894,209.878 68.216,209.232 67.709 C 208.015 66.753,207.600 66.136,207.600 65.283 C 207.600 64.968,207.315 64.505,206.827 64.027 C 206.350 63.559,205.889 62.817,205.621 62.085 C 204.932 60.203,204.556 59.592,203.676 58.925 C 202.185 57.794,201.400 56.074,201.400 53.938 C 201.400 51.872,202.050 51.383,206.500 50.101 C 211.370 48.697,214.210 47.504,215.637 46.263 C 216.331 45.658,217.822 44.488,218.950 43.664 C 220.078 42.839,221.000 42.142,221.000 42.115 C 221.000 42.087,219.673 42.542,218.050 43.124 C 213.682 44.692,211.919 44.377,215.300 42.632 C 216.534 41.996,217.250 40.987,220.290 35.600 C 221.686 33.127,222.557 32.062,223.724 31.404 C 224.291 31.084,225.282 30.224,225.927 29.493 C 227.364 27.863,227.845 27.576,228.638 27.875 C 229.260 28.110,229.182 28.142,231.097 26.858 C 232.753 25.746,235.277 25.384,237.635 25.919 C 238.099 26.025,238.395 25.829,239.864 24.445 C 242.325 22.128,247.161 19.000,248.285 19.000 C 248.530 19.000,249.144 19.295,249.650 19.655 M190.605 53.713 C 190.712 53.995,190.800 54.575,190.800 55.001 C 190.800 55.947,191.005 56.097,191.869 55.784 C 193.540 55.180,195.516 56.608,197.366 59.760 C 198.483 61.663,199.671 63.288,202.312 66.525 C 203.958 68.541,204.882 69.844,205.406 70.884 C 205.787 71.641,206.833 72.388,208.938 73.407 C 212.244 75.007,214.449 77.830,215.105 81.300 C 215.570 83.758,215.738 84.116,216.896 85.105 C 217.482 85.606,218.117 86.350,218.306 86.758 C 218.893 88.025,219.542 88.731,221.171 89.879 C 222.975 91.151,223.656 91.958,224.289 93.572 C 224.536 94.202,225.596 96.334,226.645 98.309 C 229.670 104.003,229.978 104.823,231.118 110.200 C 232.036 114.529,232.385 115.272,234.108 116.577 C 235.343 117.512,235.954 117.836,235.756 117.450 C 234.739 115.469,233.953 113.364,232.622 109.059 C 230.676 102.760,230.184 101.485,228.386 98.067 C 226.170 93.857,226.198 93.833,235.494 91.894 C 243.027 90.323,244.351 90.260,247.886 91.300 C 249.194 91.685,250.612 92.000,251.036 92.000 C 251.484 92.000,253.016 92.458,254.702 93.097 C 258.347 94.479,258.880 94.571,259.975 94.013 C 261.012 93.484,261.200 93.589,261.200 94.700 C 261.200 96.222,261.778 96.004,263.323 93.900 C 264.476 92.330,264.764 92.281,266.733 93.324 C 268.787 94.411,270.312 95.547,270.889 96.419 C 271.360 97.131,271.484 97.200,272.287 97.200 C 275.125 97.200,275.637 99.145,275.408 109.042 C 275.404 109.230,274.990 109.887,274.490 110.502 C 273.423 111.811,273.437 112.005,274.705 113.500 C 275.708 114.684,280.041 121.868,281.435 124.661 C 285.087 131.974,287.653 139.675,286.902 141.069 C 286.303 142.182,286.937 143.560,287.933 143.310 C 288.571 143.150,288.731 143.614,288.278 144.306 C 287.561 145.399,286.089 144.976,284.237 143.144 C 282.544 141.469,281.905 141.210,278.700 140.901 C 277.930 140.826,277.075 140.734,276.800 140.696 C 276.525 140.658,275.760 140.568,275.100 140.496 C 271.149 140.064,270.194 139.504,268.779 136.784 C 267.499 134.323,266.800 133.597,266.800 134.729 C 266.800 135.622,268.103 138.027,269.493 139.699 C 271.009 141.522,271.227 142.062,270.671 142.618 C 270.323 142.966,266.685 144.596,265.341 145.007 C 262.957 145.734,261.380 146.893,260.859 148.300 C 260.451 149.399,259.994 149.664,258.153 149.867 C 257.158 149.976,256.400 150.297,256.400 150.610 C 256.400 151.187,249.231 153.428,243.200 154.735 C 240.711 155.275,237.177 155.522,235.800 155.252 C 235.305 155.155,234.675 155.133,234.400 155.203 L 233.900 155.330 234.600 155.769 C 238.178 158.013,242.803 158.806,247.114 157.914 L 248.928 157.538 249.900 158.469 C 250.890 159.418,251.581 159.598,253.500 159.406 C 255.063 159.250,257.774 157.586,259.908 155.473 C 261.517 153.879,262.911 152.900,264.687 152.114 C 266.239 151.428,267.445 150.521,268.196 149.476 C 269.440 147.743,270.867 147.354,276.900 147.100 L 279.500 146.991 280.349 148.015 L 281.198 149.039 280.789 149.570 C 277.236 154.171,272.375 157.389,264.476 160.372 C 262.729 161.031,260.265 162.025,259.000 162.579 C 257.549 163.215,254.486 164.222,250.700 165.307 C 240.395 168.260,238.356 168.953,232.200 171.599 C 227.594 173.579,223.328 175.209,223.173 175.048 C 223.095 174.967,222.881 174.315,222.698 173.600 C 222.118 171.340,220.400 165.769,219.890 164.493 L 219.399 163.267 219.779 161.783 C 220.361 159.506,221.075 158.165,222.082 157.456 C 223.089 156.745,223.832 155.737,227.353 150.300 C 230.325 145.709,230.647 145.132,230.562 144.547 C 230.414 143.536,228.379 145.975,224.187 152.186 C 222.819 154.214,221.293 156.284,220.795 156.786 C 220.297 157.289,219.672 158.028,219.405 158.429 C 218.798 159.343,217.482 160.211,215.800 160.805 C 214.081 161.413,213.827 161.678,215.090 161.544 C 217.209 161.321,217.542 161.936,219.661 170.000 C 221.038 175.243,220.577 176.961,218.114 175.764 C 217.224 175.332,217.152 175.328,215.450 175.610 C 210.843 176.374,209.500 175.996,204.241 172.463 C 198.071 168.317,198.325 168.368,193.000 170.213 C 185.249 172.897,183.394 173.205,181.032 172.200 C 180.256 171.870,179.394 171.600,179.115 171.600 C 178.731 171.600,178.515 171.418,178.224 170.850 C 177.357 169.160,175.796 168.331,173.389 168.283 C 170.675 168.228,170.311 167.981,164.600 162.332 C 160.035 157.816,158.226 156.385,152.900 153.075 C 144.002 147.545,143.350 146.859,144.099 143.804 C 144.371 142.693,144.397 142.317,144.211 142.135 C 143.919 141.848,143.000 142.804,143.000 143.397 C 143.000 144.292,141.310 144.987,136.872 145.918 C 132.354 146.865,131.449 146.137,127.767 138.600 C 124.228 131.354,124.372 130.193,129.000 128.700 C 130.335 128.269,131.664 127.608,132.589 126.916 C 134.068 125.808,134.920 126.313,136.687 129.344 C 138.045 131.671,138.170 131.728,141.225 131.397 C 146.892 130.784,148.839 131.503,153.366 135.884 C 157.552 139.935,157.820 139.115,153.861 134.371 C 153.094 133.452,152.163 132.253,151.793 131.706 L 151.120 130.712 151.091 127.806 C 151.049 123.589,149.894 117.725,149.050 117.449 C 148.625 117.309,148.755 119.137,149.400 122.368 C 150.106 125.904,150.150 127.471,149.595 129.270 C 149.083 130.925,149.099 130.919,147.536 130.188 C 145.516 129.242,144.004 129.066,141.537 129.489 C 139.094 129.908,138.594 129.863,138.268 129.200 C 136.543 125.693,136.540 125.744,138.614 124.089 C 140.430 122.640,141.149 121.628,142.418 118.734 C 143.765 115.665,145.253 114.154,145.900 115.200 C 147.138 117.203,151.934 108.794,152.287 104.000 C 152.486 101.297,152.794 99.489,153.315 97.956 C 153.915 96.193,153.935 95.598,153.400 95.458 C 152.298 95.170,153.623 93.451,156.000 92.087 C 158.087 90.889,159.807 89.389,162.491 86.426 C 163.873 84.899,165.345 83.425,165.762 83.149 C 167.146 82.233,168.632 78.604,168.894 75.500 C 169.061 73.523,169.451 72.083,170.245 70.511 C 171.210 68.600,171.600 67.254,171.604 65.819 C 171.612 63.497,172.287 62.530,176.470 58.851 C 178.306 57.237,178.937 56.790,179.270 56.870 C 183.882 57.977,185.809 57.985,186.092 56.900 C 186.381 55.787,186.469 55.689,187.675 55.137 C 188.297 54.852,188.973 54.346,189.295 53.924 C 189.946 53.070,190.337 53.007,190.605 53.713 M174.600 106.588 C 174.600 106.912,174.671 107.220,174.758 107.274 C 174.845 107.328,174.880 107.063,174.836 106.686 C 174.738 105.845,174.600 105.788,174.600 106.588 M116.887 129.301 C 119.117 129.923,120.332 130.674,120.492 131.530 C 120.920 133.807,123.877 140.379,124.724 140.934 C 125.021 141.129,125.495 141.820,125.805 142.511 C 126.189 143.367,126.667 144.007,127.378 144.620 C 128.959 145.981,128.985 145.930,124.619 150.200 C 122.299 152.470,120.546 154.364,120.083 155.100 C 118.920 156.951,118.928 156.947,113.600 158.613 C 111.565 159.249,107.650 160.537,104.900 161.476 C 96.437 164.363,91.745 165.069,90.175 163.692 C 88.766 162.456,84.485 161.174,81.500 161.095 C 78.988 161.028,75.690 160.230,75.297 159.595 C 75.160 159.373,75.660 158.389,77.989 154.300 C 78.992 152.540,79.913 150.764,80.037 150.353 C 80.232 149.705,80.357 149.593,80.981 149.503 C 83.211 149.181,87.654 147.114,88.328 146.085 C 88.666 145.569,88.659 145.514,88.029 143.787 L 87.622 142.673 88.197 140.987 C 88.930 138.832,89.779 135.010,90.038 132.700 C 90.288 130.469,90.321 130.400,91.411 129.859 C 92.902 129.119,95.397 128.906,99.100 129.202 C 103.137 129.525,106.081 129.495,108.000 129.111 C 109.984 128.714,115.184 128.825,116.887 129.301 M290.229 152.554 C 289.442 153.781,289.434 154.132,290.185 154.297 C 291.858 154.664,292.689 157.154,292.197 160.321 C 291.970 161.778,291.883 162.000,291.536 162.000 C 290.674 162.000,287.471 158.960,286.375 157.103 C 285.469 155.567,287.555 151.670,289.516 151.233 C 290.796 150.948,291.008 151.341,290.229 152.554 M176.052 157.538 C 176.238 157.724,176.458 157.809,176.539 157.727 C 176.621 157.645,176.556 157.495,176.394 157.392 C 175.907 157.084,175.691 157.177,176.052 157.538 M296.986 173.981 C 296.943 175.571,296.542 175.395,296.289 173.676 L 296.145 172.700 296.573 173.081 C 296.813 173.295,296.994 173.689,296.986 173.981 M144.577 220.200 L 145.823 220.200 144.143 222.250 C 143.219 223.378,142.179 224.696,141.832 225.180 L 141.200 226.060 141.201 225.180 C 141.203 224.198,141.829 221.395,142.299 220.273 C 142.587 219.583,142.624 219.560,142.968 219.871 C 143.223 220.102,143.701 220.200,144.577 220.200 M141.236 232.350 C 142.371 233.538,142.400 233.668,142.400 237.587 C 142.400 241.687,142.420 241.646,140.896 240.597 L 140.020 239.994 140.013 236.447 C 140.003 231.317,140.062 231.122,141.236 232.350 M142.340 244.398 C 143.049 245.221,143.679 246.145,143.740 246.451 C 143.832 246.910,144.005 247.046,144.726 247.227 C 146.084 247.569,145.918 248.600,144.505 248.600 C 144.174 248.600,144.006 248.748,143.913 249.121 C 143.677 250.058,143.196 250.555,142.089 251.004 C 140.923 251.478,140.824 251.680,141.308 252.616 C 141.694 253.362,141.553 253.600,140.727 253.600 C 140.244 253.600,139.902 253.783,139.389 254.317 C 139.010 254.711,138.438 255.171,138.118 255.339 L 137.537 255.643 137.662 253.271 C 137.792 250.808,137.959 249.760,139.030 244.644 L 139.669 241.589 140.360 242.244 C 140.739 242.605,141.630 243.574,142.340 244.398 " stroke="none" fill="#000000" fill-rule="evenodd"></path></g></svg>
