<svg id="svg" xmlns="http://www.w3.org/2000/svg" xmlns:xlink="http://www.w3.org/1999/xlink" width="400" height="346" viewBox="0, 0, 400,346"><g id="svgg"><path id="path0" d="M214.111 41.045 C 213.759 41.547,213.716 41.800,213.980 41.800 C 214.080 41.800,214.255 41.530,214.370 41.200 C 214.619 40.487,214.537 40.437,214.111 41.045 M71.444 90.233 C 71.487 90.361,71.742 90.604,72.011 90.774 L 72.500 91.082 72.015 90.541 C 71.492 89.957,71.322 89.865,71.444 90.233 M104.300 129.200 C 103.946 129.352,103.963 129.373,104.450 129.386 C 104.753 129.394,105.000 129.310,105.000 129.200 C 105.000 128.965,104.846 128.965,104.300 129.200 M229.163 145.450 C 227.743 147.136,226.620 148.679,224.186 152.296 C 222.929 154.163,221.509 156.098,221.030 156.596 C 220.552 157.093,219.899 157.877,219.580 158.337 C 218.827 159.422,218.072 159.944,216.105 160.742 L 214.500 161.393 215.515 161.397 C 217.220 161.402,217.459 161.822,219.090 167.671 C 220.876 174.081,220.966 175.336,219.686 175.947 C 219.018 176.266,218.948 176.263,218.259 175.892 C 217.449 175.456,216.511 175.437,214.403 175.813 C 210.854 176.448,209.124 175.849,203.459 172.023 C 198.184 168.461,198.234 168.470,193.200 170.210 C 185.562 172.849,183.120 173.312,181.450 172.437 C 180.982 172.192,180.127 171.872,179.550 171.726 C 178.654 171.500,178.449 171.356,178.155 170.744 C 177.432 169.243,175.659 168.375,173.200 168.320 C 170.564 168.260,170.045 167.903,164.600 162.398 C 160.436 158.188,158.246 156.455,152.900 153.140 C 147.659 149.891,146.774 149.304,145.734 148.388 L 144.768 147.538 142.834 147.462 C 140.929 147.387,140.890 147.394,140.225 147.978 L 139.551 148.570 140.791 148.814 C 141.780 149.009,142.119 149.177,142.466 149.646 C 143.104 150.511,146.857 153.280,152.300 156.904 C 154.940 158.661,157.477 160.504,157.938 160.999 C 165.530 169.160,168.234 171.400,170.581 171.476 C 171.485 171.505,171.931 171.654,172.900 172.252 C 173.560 172.659,174.527 173.138,175.050 173.315 C 176.226 173.714,176.330 173.869,175.698 174.283 C 174.859 174.832,175.344 176.039,176.262 175.687 C 176.670 175.530,177.848 176.059,178.807 176.830 C 179.646 177.504,180.421 177.633,181.650 177.302 C 184.671 176.488,177.578 184.420,173.707 186.185 C 171.649 187.124,170.320 188.899,169.605 191.666 C 168.934 194.263,168.496 194.694,167.616 193.624 C 166.681 192.487,165.326 193.131,163.141 195.751 C 161.395 197.845,160.490 198.418,157.400 199.392 C 152.750 200.859,153.923 201.635,158.894 200.381 C 161.059 199.835,162.773 198.936,165.254 197.044 C 167.735 195.153,168.060 195.043,169.426 195.630 C 170.726 196.190,171.061 196.011,171.209 194.679 C 171.458 192.437,173.937 189.773,176.584 188.902 C 177.779 188.509,179.000 187.498,180.113 185.982 C 180.500 185.455,181.260 184.751,181.803 184.417 C 182.763 183.827,183.413 182.999,184.671 180.768 C 185.684 178.969,186.155 178.557,187.026 178.704 C 187.568 178.796,188.194 178.703,189.147 178.391 C 190.867 177.826,191.000 177.712,191.000 176.793 C 191.000 175.925,191.752 175.130,192.790 174.902 C 193.521 174.742,193.800 174.891,193.800 175.441 C 193.800 175.840,193.862 175.851,195.250 175.695 C 197.437 175.449,197.894 175.488,198.508 175.971 C 198.976 176.339,199.221 176.391,199.957 176.281 C 200.895 176.140,200.954 176.491,200.111 177.191 C 199.640 177.582,199.736 177.800,200.378 177.800 C 200.823 177.800,200.985 177.912,201.078 178.283 C 201.247 178.957,202.776 180.020,205.540 181.386 C 209.612 183.397,210.057 183.417,215.076 181.810 C 220.340 180.124,221.625 180.379,220.593 182.906 C 219.968 184.436,221.523 187.239,225.045 190.928 C 227.694 193.702,228.011 194.238,227.629 195.294 C 227.134 196.665,227.236 196.737,229.035 196.292 C 229.511 196.174,229.617 196.248,229.977 196.955 C 230.684 198.340,231.748 198.109,231.511 196.623 C 231.183 194.563,233.383 195.414,234.611 197.822 C 235.171 198.920,235.228 198.792,234.826 197.342 C 234.351 195.629,233.414 194.292,230.580 191.287 C 223.790 184.086,223.571 182.552,229.020 180.331 C 230.517 179.721,233.299 178.489,235.203 177.593 C 237.107 176.697,238.960 175.916,239.321 175.858 C 239.847 175.772,239.990 175.647,240.039 175.227 C 240.079 174.883,240.237 174.683,240.500 174.644 C 241.546 174.488,241.786 174.356,242.152 173.736 C 242.884 172.495,245.139 171.799,252.667 170.490 C 258.464 169.481,262.807 167.933,265.010 166.091 C 266.416 164.915,268.692 163.436,270.234 162.697 C 271.170 162.248,272.135 161.554,273.076 160.652 C 273.859 159.900,274.857 158.997,275.294 158.644 C 275.985 158.086,276.050 157.967,275.794 157.727 C 275.375 157.334,272.758 156.587,272.508 156.788 C 271.854 157.315,267.759 159.185,264.858 160.281 C 263.011 160.979,260.577 161.966,259.449 162.475 C 257.355 163.419,254.801 164.237,247.205 166.397 C 241.466 168.030,237.533 169.373,233.906 170.939 C 230.267 172.510,224.274 174.924,223.576 175.099 C 223.078 175.224,223.058 175.184,222.326 172.528 C 221.581 169.827,220.073 165.064,219.581 163.860 C 219.055 162.572,220.522 158.548,221.875 157.569 C 223.030 156.732,228.566 148.826,230.046 145.900 C 230.955 144.102,230.497 143.868,229.163 145.450 " stroke="none" fill="#000000" fill-rule="evenodd"></path></g></svg>
