<svg xmlns="http://www.w3.org/2000/svg" xmlns:xlink="http://www.w3.org/1999/xlink" width="40" height="40" viewBox="0 0 40 40">
  <defs>
    <clipPath id="clip-blacklist">
      <rect width="40" height="40"/>
    </clipPath>
  </defs>
  <g id="blacklist" clip-path="url(#clip-blacklist)">
    <g id="_3844443_disable_eye_inactive_see_show_icon" data-name="3844443_disable_eye_inactive_see_show_icon" transform="translate(-2 -2)">
      <path id="XMLID_323_" d="M28.745,31.352a.265.265,0,0,1-.1.437c-11,3.523-22.9-2.147-26.562-12.774a1.457,1.457,0,0,1,0-.936A20.01,20.01,0,0,1,7.2,10.118a.223.223,0,0,1,.31,0l6.146,6.146a.169.169,0,0,1,.044.161A8.626,8.626,0,0,0,24.1,26.849a.184.184,0,0,1,.187.046C24.8,27.405,27.778,30.385,28.745,31.352Z" transform="translate(0.001 3.453)" fill="#1e232d"/>
      <path id="XMLID_325_" d="M34.4,32.38a20.145,20.145,0,0,0,7.523-9.916,1.436,1.436,0,0,0,0-.929A20.888,20.888,0,0,0,22,7.714a21.62,21.62,0,0,0-9.887,2.379L4.439,2.419a1.428,1.428,0,0,0-2.02,2.02L39.561,41.581a1.428,1.428,0,0,0,2.02-2.02ZM22,13.428a8.557,8.557,0,0,1,6.978,13.53L17.041,15.021A8.516,8.516,0,0,1,22,13.428Z" fill="#1e232d"/>
    </g>
  </g>
</svg>
