<svg xmlns="http://www.w3.org/2000/svg" xmlns:xlink="http://www.w3.org/1999/xlink" width="40" height="40" viewBox="0 0 40 40">
  <defs>
    <clipPath id="clip-building_selected">
      <rect width="40" height="40"/>
    </clipPath>
  </defs>
  <g id="building_selected" clip-path="url(#clip-building_selected)">
    <g id="office" transform="translate(-1 -1)">
      <path id="Tracé_13" data-name="Tracé 13" d="M14.136,13H12.318a1.818,1.818,0,1,0,0,3.636h1.818a1.818,1.818,0,0,0,0-3.636Z" transform="translate(7.773 9.818)" fill="#66abf7"/>
      <path id="Tracé_14" data-name="Tracé 14" d="M14.136,9H12.318a1.818,1.818,0,1,0,0,3.636h1.818a1.818,1.818,0,0,0,0-3.636Z" transform="translate(7.773 6.545)" fill="#66abf7"/>
      <path id="Tracé_15" data-name="Tracé 15" d="M14.136,5H12.318a1.818,1.818,0,1,0,0,3.636h1.818a1.818,1.818,0,0,0,0-3.636Z" transform="translate(7.773 3.273)" fill="#66abf7"/>
      <path id="Tracé_16" data-name="Tracé 16" d="M10.136,13H8.318a1.818,1.818,0,1,0,0,3.636h1.818a1.818,1.818,0,1,0,0-3.636Z" transform="translate(4.5 9.818)" fill="#66abf7"/>
      <path id="Tracé_17" data-name="Tracé 17" d="M10.136,9H8.318a1.818,1.818,0,1,0,0,3.636h1.818a1.818,1.818,0,1,0,0-3.636Z" transform="translate(4.5 6.545)" fill="#66abf7"/>
      <path id="Tracé_18" data-name="Tracé 18" d="M10.136,5H8.318a1.818,1.818,0,1,0,0,3.636h1.818a1.818,1.818,0,1,0,0-3.636Z" transform="translate(4.5 3.273)" fill="#66abf7"/>
      <path id="Tracé_19" data-name="Tracé 19" d="M18.136,13H16.318a1.818,1.818,0,0,0,0,3.636h1.818a1.818,1.818,0,1,0,0-3.636Z" transform="translate(11.045 9.818)" fill="#66abf7"/>
      <path id="Tracé_20" data-name="Tracé 20" d="M18.136,9H16.318a1.818,1.818,0,0,0,0,3.636h1.818a1.818,1.818,0,1,0,0-3.636Z" transform="translate(11.045 6.545)" fill="#66abf7"/>
      <path id="Tracé_21" data-name="Tracé 21" d="M18.136,5H16.318a1.818,1.818,0,0,0,0,3.636h1.818a1.818,1.818,0,1,0,0-3.636Z" transform="translate(11.045 3.273)" fill="#66abf7"/>
      <path id="Tracé_22" data-name="Tracé 22" d="M39.182,37.364H37.364V2.818A1.818,1.818,0,0,0,35.545,1H6.455A1.818,1.818,0,0,0,4.636,2.818V37.364H2.818a1.818,1.818,0,0,0,0,3.636H39.182a1.818,1.818,0,0,0,0-3.636Zm-21.818,0V33.727h7.273v3.636Zm10.909,0V31.909a1.818,1.818,0,0,0-1.818-1.818H15.545a1.818,1.818,0,0,0-1.818,1.818v5.455H8.273V4.636H33.727V37.364Z" transform="translate(0 0)" fill="#66abf7"/>
    </g>
  </g>
</svg>
