<svg xmlns="http://www.w3.org/2000/svg" xmlns:xlink="http://www.w3.org/1999/xlink" width="40" height="40" viewBox="0 0 40 40">
  <defs>
    <clipPath id="clip-documentation">
      <rect width="40" height="40"/>
    </clipPath>
  </defs>
  <g id="documentation" clip-path="url(#clip-documentation)">
    <path id="_1608583_book_icon" data-name="1608583_book_icon" d="M102.858,136.407a3.4,3.4,0,0,1,.432,3.1l-6.605,21.761a4.961,4.961,0,0,1-1.837,2.582,4.792,4.792,0,0,1-2.942,1.045H69.736a5.88,5.88,0,0,1-3.567-1.285,6.747,6.747,0,0,1-2.39-3.159,4.357,4.357,0,0,1-.048-3.05q0-.1.072-.649t.1-.889a1.336,1.336,0,0,0-.072-.516,1.189,1.189,0,0,1-.072-.468,1.493,1.493,0,0,1,.192-.5,5.875,5.875,0,0,1,.4-.564,5.875,5.875,0,0,0,.4-.564,16.088,16.088,0,0,0,1.081-2.2,13.038,13.038,0,0,0,.721-2.2,1.874,1.874,0,0,0,.012-.721,2.11,2.11,0,0,1-.012-.673,2.013,2.013,0,0,1,.408-.673,3.958,3.958,0,0,0,.408-.552,14.7,14.7,0,0,0,1.009-2.21,9.831,9.831,0,0,0,.6-2.162,3.473,3.473,0,0,0-.06-.769q-.084-.552.012-.673a1.927,1.927,0,0,1,.528-.733q.432-.42.528-.54A9.913,9.913,0,0,0,71,137.115a9.1,9.1,0,0,0,.661-2.318,1.987,1.987,0,0,0-.072-.612,1.559,1.559,0,0,1-.048-.637,1.356,1.356,0,0,1,.216-.432q.168-.24.432-.552t.408-.5a5.412,5.412,0,0,0,.4-.733q.2-.444.36-.841t.384-.865a4.132,4.132,0,0,1,.468-.769,2.78,2.78,0,0,1,.637-.564,1.6,1.6,0,0,1,.865-.276,4.982,4.982,0,0,1,1.141.132l-.024.072A6.689,6.689,0,0,1,78.046,128H96.325a3.164,3.164,0,0,1,2.738,1.345,3.426,3.426,0,0,1,.432,3.123l-6.581,21.761a9.39,9.39,0,0,1-1.717,3.687,4.427,4.427,0,0,1-3.086.829H67.238a1.059,1.059,0,0,0-.913.36,1.1,1.1,0,0,0-.024,1.033q.576,1.681,3.459,1.681H91.93a2.666,2.666,0,0,0,1.345-.372,1.724,1.724,0,0,0,.841-1l7.206-23.707a3.88,3.88,0,0,0,.12-1.369A3.176,3.176,0,0,1,102.858,136.407Zm-25.557.048a.626.626,0,0,0,.048.54.524.524,0,0,0,.48.228h14.6a1,1,0,0,0,.612-.228,1.073,1.073,0,0,0,.4-.54l.5-1.537a.626.626,0,0,0-.048-.54.524.524,0,0,0-.48-.228h-14.6a1,1,0,0,0-.612.228,1.073,1.073,0,0,0-.4.54ZM75.308,142.6a.626.626,0,0,0,.048.54.524.524,0,0,0,.48.228h14.6a1,1,0,0,0,.612-.228,1.073,1.073,0,0,0,.4-.54l.5-1.537a.626.626,0,0,0-.048-.54.524.524,0,0,0-.48-.228h-14.6a1,1,0,0,0-.612.228,1.073,1.073,0,0,0-.4.54Z" transform="translate(-63.478 -126.447)" fill="#1e232d"/>
  </g>
</svg>
