<svg xmlns="http://www.w3.org/2000/svg" xmlns:xlink="http://www.w3.org/1999/xlink" width="40" height="40" viewBox="0 0 40 40">
  <defs>
    <clipPath id="clip-project-config_selected">
      <rect width="40" height="40"/>
    </clipPath>
  </defs>
  <g id="project-config_selected" clip-path="url(#clip-project-config_selected)">
    <path id="_8665827_screwdriver_wrench_icon" data-name="8665827_screwdriver_wrench_icon" d="M25.92,17.5a8.215,8.215,0,0,1,5.848,2.419l1.53,1.53a11.212,11.212,0,0,0,6.376-7.55,11.386,11.386,0,0,0,.017-5.343,1.134,1.134,0,0,0-1.9-.516l-5.382,5.382H26.5V7.592l5.382-5.382a1.134,1.134,0,0,0-.516-1.9,11.387,11.387,0,0,0-5.343.017A11.229,11.229,0,0,0,17.65,9.418a10.317,10.317,0,0,0-.128,1.908L23.988,17.8A5.948,5.948,0,0,1,25.92,17.5ZM30,21.762a5.8,5.8,0,0,0-6.67-1.086l-8.4-8.335V7.5L5,0,0,4.928l7.5,9.929h4.846l8.335,8.327a5.8,5.8,0,0,0,1.087,6.67L30.907,39a2.919,2.919,0,0,0,4.118,0l4.121-4.121a2.919,2.919,0,0,0,0-4.118ZM17.8,23.981l-4.625-4.617L1.547,31A5.271,5.271,0,1,0,9,38.45l9.3-9.3A8.3,8.3,0,0,1,17.8,23.981ZM5,36.87A1.875,1.875,0,1,1,6.874,35,1.875,1.875,0,0,1,5,36.87Z" transform="translate(0 0.002)" fill="#66abf7"/>
  </g>
</svg>
