<svg xmlns="http://www.w3.org/2000/svg" xmlns:xlink="http://www.w3.org/1999/xlink" width="40" height="40" viewBox="0 0 40 40">
  <defs>
    <clipPath id="clip-save">
      <rect width="40" height="40"/>
    </clipPath>
  </defs>
  <g id="save" clip-path="url(#clip-save)">
    <g id="_2639912_save_icon" data-name="2639912_save_icon" transform="translate(-4 -4)">
      <path id="Tracé_5" data-name="Tracé 5" d="M36.727,4H33.091V14.909a1.819,1.819,0,0,1-1.818,1.818H14.909a1.819,1.819,0,0,1-1.818-1.818V4H7.636A3.635,3.635,0,0,0,4,7.636V40.364A3.635,3.635,0,0,0,7.636,44H40.364A3.635,3.635,0,0,0,44,40.364V11.273Zm0,36.364H11.273V29.455a3.635,3.635,0,0,1,3.636-3.636H33.091a3.635,3.635,0,0,1,3.636,3.636Z" fill="#1e232d"/>
      <rect id="Rectangle_7" data-name="Rectangle 7" width="2" height="5" transform="translate(26.8 4)" fill="#1e232d"/>
    </g>
  </g>
</svg>
