<svg xmlns="http://www.w3.org/2000/svg" xmlns:xlink="http://www.w3.org/1999/xlink" width="40" height="40" viewBox="0 0 40 40">
  <defs>
    <clipPath id="clip-settings_selected">
      <rect width="40" height="40"/>
    </clipPath>
  </defs>
  <g id="settings_selected" clip-path="url(#clip-settings_selected)">
    <g id="_3669250_settings_ic_icon" data-name="3669250_settings_ic_icon" transform="translate(-4 -4)">
      <path id="Tracé_1" data-name="Tracé 1" d="M0,0H48V48H0Z" fill="none"/>
      <path id="Tracé_2" data-name="Tracé 2" d="M38.86,25.95A15.7,15.7,0,0,0,39,24a15.7,15.7,0,0,0-.14-1.95l4.23-3.31a1,1,0,0,0,.24-1.28l-4-6.93a.989.989,0,0,0-1.22-.43l-4.98,2.01a15.176,15.176,0,0,0-3.38-1.97L29,4.84A1.029,1.029,0,0,0,28,4H20a1.01,1.01,0,0,0-.99.84l-.75,5.3a14.8,14.8,0,0,0-3.38,1.97L9.9,10.1a1,1,0,0,0-1.22.43l-4,6.93a1,1,0,0,0,.24,1.28l4.22,3.31A15.7,15.7,0,0,0,9,24a15.7,15.7,0,0,0,.14,1.95L4.92,29.26a1,1,0,0,0-.24,1.28l4,6.93a.989.989,0,0,0,1.22.43l4.98-2.01a15.175,15.175,0,0,0,3.38,1.97l.75,5.3A1.01,1.01,0,0,0,20,44h8a1.01,1.01,0,0,0,.99-.84l.75-5.3a14.8,14.8,0,0,0,3.38-1.97L38.1,37.9a1,1,0,0,0,1.22-.43l4-6.93a1,1,0,0,0-.24-1.28ZM24,31a7,7,0,1,1,7-7A6.995,6.995,0,0,1,24,31Z" transform="translate(0 0)" fill="#66abf7"/>
    </g>
  </g>
</svg>
