<svg id="svg" xmlns="http://www.w3.org/2000/svg" xmlns:xlink="http://www.w3.org/1999/xlink" width="400" height="346" viewBox="0, 0, 400,346"><g id="svgg"><path id="path0" d="M214.111 41.045 C 213.759 41.547,213.716 41.800,213.980 41.800 C 214.080 41.800,214.255 41.530,214.370 41.200 C 214.619 40.487,214.537 40.437,214.111 41.045 M281.868 63.310 C 281.180 63.611,281.093 63.804,280.402 66.562 C 279.785 69.024,279.260 70.288,278.405 71.369 C 277.466 72.558,276.975 73.505,276.075 75.869 C 275.166 78.258,274.028 80.052,272.603 81.343 C 271.184 82.629,271.090 83.022,271.605 85.523 C 272.351 89.152,272.260 89.266,269.046 88.707 C 264.433 87.905,263.753 87.899,261.429 88.641 C 259.845 89.147,258.860 89.038,257.853 88.247 C 256.400 87.105,256.053 87.012,253.374 87.043 C 251.270 87.068,250.596 86.992,248.864 86.536 C 245.830 85.737,245.305 85.795,236.373 87.911 C 228.578 89.757,227.335 89.848,226.394 88.643 C 225.835 87.928,224.628 87.202,223.995 87.201 C 223.236 87.199,222.661 86.699,221.706 85.209 C 220.556 83.416,219.778 82.555,218.318 81.463 C 217.648 80.962,216.868 80.292,216.584 79.974 C 215.994 79.313,214.691 79.315,214.884 79.976 C 214.937 80.154,215.078 80.885,215.199 81.600 C 215.557 83.714,215.751 84.110,216.918 85.107 C 217.522 85.622,218.229 86.466,218.491 86.982 C 219.051 88.088,219.891 88.959,221.400 89.998 C 223.076 91.152,223.159 91.281,226.382 97.700 C 229.277 103.466,229.427 103.717,230.234 104.147 C 230.695 104.393,231.104 104.563,231.143 104.524 C 231.308 104.359,229.145 99.430,228.120 97.635 C 226.142 94.171,226.423 93.848,232.600 92.484 C 242.865 90.219,244.461 90.096,248.002 91.301 C 248.823 91.580,250.170 91.888,250.997 91.986 C 252.010 92.105,253.250 92.467,254.800 93.096 C 257.480 94.182,259.153 94.441,260.153 93.924 C 261.097 93.436,261.200 93.505,261.200 94.614 C 261.200 96.075,261.773 95.929,263.118 94.124 C 263.682 93.367,264.269 92.677,264.422 92.592 C 265.333 92.083,269.417 94.589,271.250 96.781 C 271.512 97.095,271.831 97.200,272.523 97.200 C 274.728 97.200,275.457 99.009,275.504 104.600 C 275.542 109.126,275.493 109.381,274.329 110.769 C 273.421 111.852,273.408 111.732,274.585 113.239 C 280.399 120.685,288.236 138.461,286.893 141.155 C 286.360 142.221,286.789 143.107,287.898 143.232 C 289.858 143.454,286.770 146.493,283.988 147.081 C 283.308 147.224,281.684 148.666,279.454 151.107 C 277.453 153.298,277.465 153.225,278.919 154.144 C 280.247 154.983,279.889 155.159,275.961 155.604 C 274.314 155.791,273.949 155.914,272.394 156.803 C 270.100 158.116,268.142 158.998,264.400 160.404 C 262.695 161.044,260.535 161.922,259.600 162.355 C 257.461 163.345,256.127 163.780,248.700 165.910 C 241.006 168.116,238.219 169.064,233.300 171.152 C 227.472 173.625,223.335 175.217,223.178 175.048 C 223.102 174.967,222.754 173.865,222.405 172.600 C 221.487 169.282,220.004 164.594,219.662 163.928 C 219.041 162.723,220.629 158.366,222.005 157.497 C 223.364 156.639,230.600 145.799,230.600 144.621 C 230.600 143.319,228.440 145.870,224.185 152.196 C 222.818 154.229,221.295 156.302,220.800 156.803 C 220.305 157.304,219.675 158.051,219.400 158.463 C 218.785 159.384,217.514 160.214,215.800 160.811 C 214.111 161.400,213.809 161.689,215.048 161.530 C 217.072 161.270,217.388 161.763,219.069 167.800 C 220.493 172.913,220.774 174.604,220.316 175.303 C 219.761 176.151,219.071 176.294,218.077 175.766 C 217.248 175.326,217.184 175.322,215.563 175.602 C 210.924 176.405,209.537 176.019,204.224 172.450 C 198.146 168.366,198.306 168.398,193.028 170.214 C 185.206 172.904,183.393 173.205,181.032 172.200 C 180.256 171.870,179.394 171.600,179.115 171.600 C 178.731 171.600,178.515 171.418,178.224 170.850 C 177.353 169.153,175.798 168.331,173.362 168.282 C 170.616 168.227,169.775 167.652,164.498 162.229 C 160.488 158.107,158.529 156.579,152.300 152.713 C 144.126 147.640,143.347 146.809,144.071 143.927 C 144.382 142.691,144.354 142.000,143.993 142.000 C 143.722 142.000,143.000 143.027,143.000 143.412 C 143.000 144.455,137.080 146.400,133.906 146.400 C 132.239 146.400,130.374 144.015,127.651 138.400 C 124.175 131.233,124.365 130.177,129.432 128.490 C 130.298 128.201,131.534 127.613,132.179 127.182 C 134.191 125.839,134.872 126.167,136.712 129.363 C 137.984 131.573,138.285 131.727,140.730 131.427 C 146.717 130.691,148.796 131.437,153.500 136.008 C 157.548 139.941,157.609 138.873,153.609 134.100 C 151.065 131.065,151.113 131.182,151.086 127.822 C 151.054 123.692,149.879 117.707,149.050 117.446 C 148.630 117.313,148.753 118.991,149.400 122.232 C 150.114 125.808,150.169 127.730,149.602 129.343 C 149.061 130.883,149.049 130.888,147.564 130.215 C 145.467 129.264,143.924 129.080,141.511 129.493 C 138.427 130.022,138.601 130.120,137.310 127.132 C 136.690 125.697,136.738 125.585,138.614 124.089 C 140.412 122.654,141.176 121.592,142.241 119.045 C 143.638 115.704,144.721 114.569,145.905 115.203 C 146.504 115.523,147.153 115.091,148.284 113.619 C 151.022 110.058,152.011 107.591,152.302 103.600 C 152.473 101.257,152.736 99.772,153.310 97.918 C 153.904 95.999,153.917 95.664,153.400 95.500 C 152.278 95.144,153.650 93.422,156.260 91.909 C 158.218 90.774,159.993 89.207,162.500 86.398 C 163.710 85.043,165.060 83.673,165.500 83.354 C 167.258 82.078,168.568 78.996,168.881 75.400 C 169.006 73.970,168.997 73.926,168.700 74.450 C 168.528 74.752,168.275 75.000,168.138 75.000 C 168.001 75.000,167.634 75.585,167.323 76.299 C 165.448 80.602,159.452 85.821,153.733 88.127 C 152.848 88.484,151.714 89.085,151.212 89.463 C 150.710 89.841,150.018 90.294,149.674 90.468 C 147.484 91.578,146.029 95.271,145.800 100.300 C 145.612 104.412,145.215 105.937,143.866 107.724 C 143.064 108.786,142.984 108.992,143.039 109.850 C 143.106 110.892,142.890 111.052,142.300 110.400 C 141.849 109.902,141.400 109.883,141.400 110.363 C 141.400 110.865,140.587 111.554,138.628 112.712 C 136.208 114.142,133.452 117.188,135.730 115.914 C 136.860 115.283,136.943 115.336,136.423 116.355 C 136.043 117.099,135.547 117.594,134.315 118.458 C 134.034 118.654,133.443 119.348,133.001 119.998 C 132.037 121.419,131.258 122.028,129.827 122.482 C 129.237 122.670,128.465 123.020,128.112 123.262 C 125.564 125.002,124.827 125.425,123.690 125.803 C 122.938 126.054,122.247 126.432,122.024 126.716 C 121.481 127.406,120.698 127.345,117.565 126.373 C 114.177 125.321,112.470 125.177,110.518 125.780 C 106.377 127.059,105.951 126.683,104.204 120.200 C 102.843 115.148,102.030 113.166,100.983 112.346 C 100.636 112.074,99.935 111.167,99.426 110.329 C 98.917 109.492,97.213 107.226,95.639 105.295 C 92.422 101.346,90.600 98.777,90.600 98.188 C 90.600 97.752,92.243 96.611,94.756 95.303 C 95.556 94.886,96.174 94.507,96.129 94.462 C 95.898 94.231,92.492 95.339,91.052 96.113 C 88.517 97.477,87.508 97.133,85.340 94.166 C 84.587 93.135,83.108 92.355,79.718 91.200 C 73.834 89.194,72.782 88.335,71.998 84.891 C 71.502 82.715,71.510 82.723,69.978 82.778 C 68.446 82.834,68.002 82.577,65.981 80.464 C 64.367 78.776,62.298 76.725,59.666 74.207 C 58.382 72.978,57.077 71.211,56.190 69.500 C 55.396 67.969,53.886 67.584,53.496 68.813 C 53.150 69.904,56.552 75.002,58.535 76.366 C 59.176 76.806,60.825 78.307,62.200 79.700 C 64.958 82.493,66.514 83.792,67.702 84.288 C 68.767 84.733,69.200 85.164,69.202 85.781 C 69.207 87.229,71.755 91.213,72.494 90.930 C 75.119 89.923,86.276 97.434,88.196 101.500 C 88.880 102.949,89.487 103.789,92.102 106.909 C 94.750 110.067,96.916 113.232,98.375 116.071 C 99.330 117.929,99.740 119.035,100.883 122.838 C 101.170 123.794,101.629 124.842,101.903 125.167 C 102.466 125.836,102.542 126.358,102.100 126.528 C 101.405 126.794,102.556 129.380,103.392 129.431 C 104.515 129.498,106.390 129.359,108.000 129.088 C 113.457 128.168,120.105 129.463,120.491 131.520 C 120.905 133.731,123.642 139.840,124.617 140.729 C 124.961 141.043,125.462 141.795,125.731 142.400 C 126.047 143.113,126.634 143.891,127.400 144.614 C 128.897 146.025,128.883 146.080,126.428 148.443 C 122.233 152.481,120.651 154.152,120.015 155.215 C 119.073 156.790,118.553 157.068,113.663 158.608 C 111.263 159.363,107.860 160.492,106.100 161.115 C 96.992 164.342,91.963 165.143,90.100 163.666 C 88.487 162.386,84.320 161.138,81.800 161.179 C 80.246 161.204,78.721 160.971,77.243 160.483 C 76.018 160.079,75.484 160.124,73.405 160.809 C 72.389 161.144,70.730 161.588,69.718 161.796 C 66.614 162.435,64.259 163.522,62.784 164.997 C 60.759 167.022,57.402 167.655,48.400 167.707 C 40.137 167.756,38.401 167.877,36.100 168.563 C 33.980 169.195,29.177 169.362,28.531 168.826 C 27.960 168.351,28.130 167.505,29.000 166.500 C 30.140 165.183,29.962 164.491,28.696 165.321 C 27.773 165.926,27.346 166.899,27.377 168.329 C 27.404 169.585,27.381 169.651,26.686 170.265 C 26.290 170.614,25.572 171.452,25.090 172.127 C 21.974 176.486,18.348 175.562,18.572 170.464 C 18.610 169.601,19.068 169.200,20.014 169.200 C 20.996 169.200,20.994 169.179,19.900 168.131 C 19.204 167.464,19.000 167.125,19.000 166.634 C 19.000 166.009,18.579 165.748,18.300 166.200 C 17.934 166.793,17.190 166.389,16.729 165.347 C 16.140 164.014,14.833 162.827,12.276 161.301 C 9.867 159.863,8.751 158.857,8.336 157.749 C 8.161 157.282,7.827 156.381,7.594 155.747 C 7.058 154.291,6.614 154.048,4.057 153.806 C 2.032 153.614,1.729 153.685,1.544 154.394 C 1.405 154.924,1.724 155.000,4.102 155.000 C 6.531 155.000,6.699 155.099,6.894 156.645 C 7.275 159.661,8.509 161.208,11.937 162.962 C 15.188 164.625,15.291 164.874,15.301 171.100 L 15.308 175.500 16.081 177.200 C 17.073 179.382,16.787 179.098,19.983 181.075 C 23.561 183.289,24.557 184.355,23.500 184.836 C 22.788 185.161,22.852 185.312,24.250 186.616 C 25.873 188.130,26.746 188.194,27.312 186.840 C 27.604 186.142,27.597 186.116,26.983 185.483 C 26.293 184.770,26.277 184.468,26.792 181.869 C 27.206 179.782,26.522 177.507,25.721 178.307 C 25.298 178.731,25.316 179.039,25.800 179.655 C 27.090 181.294,25.279 181.934,23.173 180.583 C 21.667 179.616,21.676 178.885,23.207 177.700 C 23.633 177.370,24.721 176.290,25.624 175.300 C 28.119 172.563,28.097 172.575,31.298 172.379 C 32.891 172.281,35.227 171.963,36.968 171.607 C 40.328 170.918,41.673 170.844,42.149 171.320 C 42.411 171.583,42.730 171.616,43.919 171.505 C 45.392 171.367,45.926 171.498,46.589 172.160 C 46.851 172.423,46.904 172.386,47.044 171.846 C 47.356 170.642,51.557 170.790,52.943 172.053 C 54.213 173.210,62.739 170.183,65.500 167.596 C 65.830 167.287,67.360 166.402,68.900 165.630 C 71.538 164.307,72.487 163.636,73.549 162.345 C 74.144 161.621,74.461 161.634,79.567 162.594 C 86.763 163.946,87.973 164.340,89.523 165.836 C 90.567 166.843,91.334 167.020,92.967 166.631 C 94.170 166.345,94.331 166.353,96.128 166.786 C 97.828 167.196,98.488 167.235,99.378 166.980 C 99.791 166.861,100.317 167.886,100.828 169.800 C 102.127 174.667,100.786 177.568,95.931 180.401 C 93.429 181.860,93.437 181.851,95.050 181.468 C 100.478 180.179,101.027 180.145,102.718 180.992 C 104.595 181.933,106.948 184.019,108.179 185.834 C 109.830 188.270,111.915 190.013,113.500 190.284 C 114.741 190.496,116.918 191.374,117.958 192.082 C 119.608 193.206,119.693 193.542,119.747 199.200 C 119.799 204.727,119.809 204.807,120.525 205.471 L 121.046 205.954 120.373 206.175 C 118.643 206.745,115.273 207.026,110.876 206.967 C 106.061 206.902,105.945 206.926,105.728 208.010 C 105.609 208.605,105.206 209.064,104.009 209.971 C 103.177 210.600,102.251 212.400,102.759 212.400 C 102.847 212.400,103.759 211.725,104.787 210.900 C 107.218 208.948,107.599 208.837,110.239 209.322 C 111.974 209.640,113.279 209.700,118.500 209.700 C 125.901 209.700,125.030 209.391,128.004 213.075 C 130.525 216.198,130.519 216.100,128.210 216.311 C 124.457 216.654,125.235 217.354,130.200 218.103 C 133.228 218.560,133.942 218.743,134.645 219.245 C 134.919 219.441,135.124 219.438,135.645 219.229 C 136.657 218.823,136.893 218.851,136.968 219.385 C 137.015 219.713,136.886 219.984,136.573 220.220 C 136.147 220.542,136.129 220.626,136.354 221.249 C 136.705 222.219,136.668 222.526,136.050 223.747 L 135.500 224.835 135.926 225.167 C 136.161 225.350,136.518 225.598,136.721 225.718 C 137.068 225.924,137.059 225.973,136.544 226.584 C 136.165 227.035,136.000 227.456,136.000 227.977 C 136.000 228.388,135.737 229.444,135.416 230.324 C 134.744 232.165,134.474 234.304,134.297 239.200 C 134.150 243.265,133.934 244.888,133.210 247.368 C 132.292 250.509,132.124 251.787,132.313 254.175 C 132.741 259.579,132.338 263.197,131.065 265.383 C 129.466 268.129,123.562 272.964,120.779 273.806 C 118.373 274.535,114.191 277.471,113.507 278.913 C 112.904 280.184,113.669 282.727,115.910 286.900 C 119.324 293.259,119.866 294.704,121.141 300.846 L 121.900 304.500 122.033 300.900 C 122.173 297.108,122.437 295.671,123.191 294.612 C 124.320 293.027,123.528 292.305,122.102 293.620 C 121.048 294.591,121.003 294.570,120.424 292.800 C 120.191 292.085,119.055 289.836,117.902 287.801 C 114.371 281.577,114.101 279.685,116.600 278.684 C 117.229 278.432,118.091 277.858,118.614 277.343 C 119.415 276.554,119.720 276.401,121.088 276.096 C 126.798 274.826,136.200 265.517,136.200 261.134 C 136.200 260.303,136.319 259.880,136.719 259.291 C 137.548 258.069,137.641 257.637,137.615 255.113 C 137.585 252.161,137.782 250.671,138.940 245.100 C 139.816 240.879,139.859 240.513,139.994 236.100 C 140.124 231.871,140.173 231.419,140.600 230.500 C 140.993 229.655,141.089 229.020,141.218 226.400 C 141.435 222.001,142.199 219.175,142.980 219.882 C 143.701 220.535,147.235 220.106,153.500 218.607 C 159.071 217.274,160.282 216.665,162.111 214.277 C 163.414 212.576,164.943 211.277,167.900 209.357 C 172.148 206.600,171.722 206.145,167.067 208.468 C 162.118 210.938,160.400 212.289,160.400 213.711 C 160.400 214.910,160.621 214.845,151.800 216.212 C 142.488 217.655,142.341 217.651,139.166 215.910 C 138.093 215.322,136.602 214.606,135.851 214.319 C 134.300 213.727,133.440 212.980,131.869 210.862 C 130.380 208.855,129.182 207.872,126.671 206.600 C 123.613 205.050,123.747 205.427,123.917 198.891 C 124.070 193.027,124.076 193.057,122.619 191.741 C 121.600 190.821,119.927 189.973,118.000 189.400 C 115.092 188.536,114.264 187.917,110.808 184.019 C 109.078 182.069,107.984 181.308,106.451 180.990 C 104.049 180.491,103.448 179.132,104.510 176.600 C 105.309 174.693,105.365 171.252,104.603 170.867 C 103.885 170.505,103.600 170.025,103.600 169.177 C 103.600 167.362,106.168 165.826,110.406 165.106 C 113.270 164.619,114.084 164.293,115.261 163.160 C 117.159 161.332,119.456 160.759,121.600 161.579 C 123.896 162.457,125.118 161.441,123.042 160.379 L 122.414 160.058 123.146 159.579 C 123.607 159.277,124.051 158.730,124.345 158.100 C 125.223 156.223,125.310 156.101,125.807 156.031 C 127.055 155.855,131.987 151.875,132.912 150.298 C 133.789 148.800,133.942 148.731,136.577 148.637 C 140.277 148.505,141.547 148.795,142.846 150.069 C 144.255 151.452,146.528 153.128,151.100 156.154 C 156.273 159.578,158.229 161.042,158.689 161.832 C 159.257 162.808,165.082 168.552,166.815 169.845 C 168.810 171.334,169.355 171.583,170.561 171.555 C 171.402 171.536,171.787 171.657,172.741 172.238 C 173.379 172.626,174.330 173.105,174.857 173.302 C 175.997 173.728,176.147 173.907,175.606 174.197 C 174.687 174.689,175.244 175.800,176.410 175.800 C 176.940 175.800,177.518 176.048,178.511 176.700 C 179.857 177.584,181.008 177.873,181.300 177.400 C 181.534 177.022,182.200 177.177,182.200 177.610 C 182.200 179.272,177.074 184.446,173.853 186.035 C 171.446 187.222,170.182 188.927,169.488 191.922 C 169.029 193.905,168.099 194.675,167.569 193.511 C 167.077 192.433,165.683 192.919,163.995 194.757 C 161.502 197.473,161.110 197.838,160.229 198.280 C 159.718 198.537,158.400 199.025,157.300 199.366 C 153.060 200.679,153.811 201.612,158.275 200.577 C 160.768 199.999,162.538 199.140,164.900 197.364 C 167.768 195.207,168.165 195.061,169.423 195.712 C 170.603 196.322,171.082 196.063,171.225 194.738 C 171.450 192.643,173.923 189.855,176.235 189.089 C 177.763 188.583,178.554 187.996,179.861 186.397 C 180.494 185.621,181.303 184.815,181.657 184.607 C 182.644 184.025,183.287 183.275,184.221 181.617 C 185.731 178.939,186.077 178.591,187.089 178.730 C 188.966 178.987,191.115 177.890,191.036 176.716 C 190.986 175.975,191.341 175.571,192.451 175.108 C 193.406 174.708,193.600 174.720,193.600 175.176 C 193.600 175.890,194.096 176.076,195.336 175.827 C 197.105 175.472,198.052 175.531,198.474 176.023 C 198.787 176.390,198.970 176.429,199.835 176.314 L 200.834 176.182 200.317 176.860 C 199.675 177.701,199.674 177.800,200.305 177.800 C 200.652 177.800,200.866 177.948,200.990 178.273 C 201.292 179.069,202.574 179.958,205.500 181.403 C 209.761 183.507,209.748 183.506,214.694 181.951 C 219.785 180.351,221.480 180.465,220.690 182.355 C 219.862 184.335,221.119 186.878,224.828 190.728 C 227.706 193.716,227.919 194.079,227.576 195.419 C 227.256 196.667,227.479 196.976,228.367 196.517 C 229.269 196.051,229.527 196.120,229.934 196.936 C 230.676 198.428,231.684 198.191,231.568 196.552 C 231.424 194.514,232.995 195.286,234.718 198.100 L 235.208 198.900 235.083 198.100 C 234.769 196.085,233.839 194.678,230.538 191.218 C 227.070 187.582,225.517 185.310,225.270 183.511 C 225.092 182.212,225.676 181.726,229.000 180.406 C 230.485 179.817,232.562 178.906,233.615 178.383 C 236.459 176.970,239.346 175.773,239.747 175.840 C 240.019 175.886,240.100 175.763,240.100 175.300 C 240.100 174.750,240.167 174.692,240.897 174.600 C 241.525 174.521,241.779 174.363,242.097 173.852 C 242.894 172.570,245.257 171.823,252.408 170.593 C 259.065 169.448,262.675 168.099,265.828 165.577 C 267.534 164.213,268.198 163.863,268.057 164.405 C 267.787 165.435,274.659 162.746,275.556 161.471 C 276.354 160.336,276.539 160.192,277.400 160.034 C 279.255 159.693,279.799 159.279,279.746 158.251 C 279.671 156.777,280.041 156.969,282.874 159.869 C 284.788 161.830,285.778 162.690,286.448 162.978 C 287.475 163.418,287.836 163.866,288.431 165.436 C 288.963 166.844,289.571 167.611,290.754 168.371 C 291.292 168.715,291.841 169.201,291.974 169.449 C 292.108 169.697,292.860 170.350,293.646 170.900 C 297.660 173.711,297.567 173.371,295.537 177.830 C 294.041 181.117,293.805 181.872,293.795 183.400 C 293.789 184.207,293.630 184.818,293.194 185.695 C 292.486 187.120,292.432 188.264,292.922 191.544 C 293.144 193.037,293.200 194.192,293.102 195.300 C 292.921 197.353,292.921 198.536,293.102 199.353 C 293.225 199.910,293.170 200.066,292.723 200.418 C 291.960 201.017,292.044 201.211,293.708 202.700 C 295.753 204.531,296.680 205.902,298.896 210.372 C 300.855 214.322,301.578 215.349,303.061 216.286 C 306.193 218.266,306.995 223.710,304.938 229.026 C 302.524 235.267,302.789 236.843,307.085 241.771 C 309.158 244.149,310.514 245.262,310.792 244.813 C 311.164 244.212,310.669 243.428,308.641 241.400 C 304.973 237.734,304.897 236.459,307.901 228.919 C 310.784 221.683,310.607 220.096,306.493 216.270 C 303.673 213.648,303.552 213.172,305.660 213.000 L 306.887 212.900 305.543 212.026 C 303.893 210.953,302.170 209.127,301.499 207.740 C 301.223 207.168,300.099 205.620,299.001 204.300 C 297.903 202.980,296.759 201.434,296.458 200.863 L 295.911 199.827 296.339 199.063 C 297.459 197.062,297.823 192.724,297.129 189.637 C 296.593 187.252,296.665 186.665,297.812 184.062 C 298.237 183.098,298.251 182.946,298.011 181.945 C 297.702 180.656,297.913 180.054,299.558 177.541 C 302.342 173.287,301.901 171.490,297.318 168.410 C 294.914 166.795,293.554 165.399,292.869 163.844 C 292.282 162.512,291.873 162.000,291.395 162.000 C 290.444 162.000,286.312 157.701,286.082 156.472 C 285.819 155.071,288.089 151.449,290.205 149.896 C 291.806 148.721,293.898 148.187,292.444 149.325 C 291.669 149.932,291.615 150.556,292.282 151.183 C 292.965 151.825,293.394 151.653,294.241 150.398 C 295.465 148.584,295.449 148.345,294.021 147.020 C 292.240 145.366,292.496 144.107,294.853 142.940 C 297.072 141.842,298.016 142.037,296.900 143.364 C 296.284 144.095,296.279 144.200,296.855 144.200 C 297.710 144.200,298.200 143.662,298.200 142.724 C 298.200 141.967,298.320 141.744,299.250 140.765 C 299.828 140.157,300.727 139.200,301.249 138.639 C 301.908 137.930,302.410 137.579,302.890 137.489 C 303.777 137.322,304.792 136.332,306.042 134.413 C 307.750 131.793,307.836 131.751,310.524 132.219 C 313.113 132.670,315.800 130.543,315.800 128.043 C 315.800 126.695,315.907 126.478,316.825 125.962 C 317.269 125.713,317.883 125.093,318.242 124.535 C 319.464 122.630,320.664 122.389,323.668 123.443 C 325.249 123.998,325.773 124.086,327.497 124.093 C 330.561 124.104,330.430 124.800,327.021 126.622 C 324.273 128.090,319.969 130.635,320.067 130.734 C 320.158 130.824,327.167 128.979,328.011 128.643 C 329.444 128.072,330.020 127.229,331.685 123.266 C 332.753 120.724,333.383 119.884,334.060 120.098 C 335.358 120.509,335.548 120.471,335.900 119.729 C 336.647 118.154,340.273 116.661,341.235 117.532 C 341.564 117.829,341.804 117.839,343.543 117.625 C 345.414 117.395,345.505 117.403,346.071 117.821 C 346.788 118.351,348.000 118.667,348.000 118.323 C 348.000 118.140,346.682 115.213,346.534 115.068 C 346.515 115.050,345.600 114.882,344.500 114.695 C 343.400 114.508,341.698 114.093,340.717 113.773 C 339.266 113.299,338.820 113.228,338.317 113.390 C 337.141 113.769,334.141 114.200,332.672 114.200 L 331.196 114.200 330.687 114.950 C 330.408 115.363,329.980 116.015,329.738 116.400 C 328.589 118.223,326.666 118.370,323.278 116.895 C 320.878 115.850,321.020 115.825,318.900 117.658 C 318.020 118.418,316.805 119.292,316.200 119.599 C 315.396 120.007,315.037 120.325,314.866 120.783 C 314.691 121.251,314.388 121.512,313.666 121.817 C 311.804 122.605,311.758 122.641,311.873 123.213 C 312.071 124.203,310.648 124.626,309.900 123.800 C 308.413 122.157,305.025 124.425,301.432 129.468 C 296.921 135.800,294.972 137.220,292.740 135.805 C 290.068 134.110,289.434 132.994,287.621 126.800 C 285.623 119.972,284.994 118.393,283.524 116.526 C 282.673 115.444,282.600 115.263,282.600 114.220 C 282.600 112.588,280.587 97.037,280.180 95.526 C 280.056 95.066,279.679 94.458,279.301 94.110 C 278.936 93.775,278.390 92.974,278.086 92.330 C 277.648 91.402,277.311 91.012,276.449 90.440 L 275.364 89.719 275.517 88.610 C 275.696 87.314,275.653 86.023,275.394 84.900 C 274.747 82.093,276.222 78.914,278.006 79.271 C 278.751 79.420,278.834 79.287,279.669 76.600 C 280.374 74.334,280.950 73.244,282.243 71.732 L 282.900 70.965 283.020 67.832 C 283.129 64.978,282.965 62.973,282.626 63.016 C 282.557 63.025,282.215 63.157,281.868 63.310 " stroke="none" fill="#000000" fill-rule="evenodd"></path></g></svg>